# Blender v3.1.2 OBJ File: ''
# www.blender.org
mtllib BlockV2.mtl
o 立方体
v -0.896672 -0.934470 0.972929
v -0.972219 0.823488 0.900538
v -0.868062 -0.899503 -0.838323
v -0.683223 0.751963 -0.927154
v 0.852164 -0.969603 0.861952
v 0.827728 0.960918 0.962541
v 0.830014 -0.976199 -0.964994
v 0.943619 1.255867 -0.585271
v -0.870564 -0.880648 -0.498815
v -0.929246 -0.933613 -0.010925
v -0.900023 -0.938270 0.636320
v -0.958625 -0.566149 1.011850
v -1.061366 -0.137647 1.055199
v -1.065909 0.343803 1.058088
v -0.934264 0.919759 0.473333
v -0.850338 0.927702 0.094552
v -0.778410 0.878245 -0.384215
v -0.775567 0.424249 -0.987757
v -0.938701 0.009075 -1.048447
v -0.969827 -0.502844 -0.927317
v 0.490975 -0.969867 -1.061977
v -0.098985 -1.019854 -1.054432
v -0.501376 -0.942102 -0.958676
v -0.136146 0.856353 -0.967238
v 0.379868 1.142843 -0.784673
v 0.691700 1.327651 -0.664363
v 0.927927 0.675554 -0.881337
v 0.813249 0.177575 -0.977343
v 0.876929 -0.432019 -0.969802
v 0.992589 -0.939669 0.519828
v 0.945133 -0.951763 0.031044
v 0.859980 -1.011545 -0.426611
v 1.121851 1.267067 -0.162342
v 1.113741 1.321006 0.130503
v 0.967667 1.159105 0.473732
v 0.898802 0.494667 0.950933
v 0.778030 -0.132148 1.059814
v 0.805989 -0.605686 1.022239
v -0.508823 -0.967621 1.045854
v 0.014102 -0.964181 0.942214
v 0.574830 -0.882687 0.858043
v 0.418573 0.918726 1.008097
v -0.029100 0.802519 1.075307
v -0.491782 0.843756 0.939033
v 0.751049 1.511757 -0.288973
v 0.727955 1.550184 0.046359
v 0.570562 1.323260 0.410730
v 0.216410 1.399534 -0.431990
v 0.198695 1.418792 -0.018138
v 0.173896 1.233027 0.479121
v -0.254825 1.177729 -0.477716
v -0.367691 1.243774 -0.019994
v -0.387445 1.091454 0.476350
v -0.415380 -0.987449 -0.518898
v -0.499000 -0.995393 -0.104525
v -0.516396 -0.947825 0.614100
v -0.021537 -1.042700 -0.487674
v -0.064999 -1.004107 -0.032998
v -0.005701 -0.958142 0.507274
v 0.470121 -1.077449 -0.445802
v 0.496374 -1.033075 0.064812
v 0.610492 -0.902379 0.464865
v 0.436971 -0.655410 1.111522
v -0.045410 -0.710848 1.139745
v -0.544330 -0.658366 1.207154
v 0.188959 -0.263596 1.233102
v -0.293742 -0.332457 1.266778
v -0.724468 -0.303866 1.244410
v 0.327195 0.377365 1.117571
v -0.211083 0.222194 1.220065
v -0.681282 0.215734 1.173691
v 0.978886 -0.559074 -0.457586
v 1.054508 -0.511094 -0.055784
v 0.965687 -0.527641 0.583703
v 1.028410 0.128493 -0.536793
v 1.076594 0.040498 -0.151937
v 0.894846 -0.047290 0.544723
v 1.124469 0.675195 -0.365902
v 1.136415 0.618114 0.039618
v 1.028325 0.562803 0.502435
v -0.484489 -0.540527 -1.051170
v -0.017975 -0.539349 -1.247294
v 0.543053 -0.416960 -1.199412
v -0.408720 -0.074070 -1.173462
v 0.053328 -0.059378 -1.259393
v 0.442325 0.069978 -1.211859
v -0.213044 0.385159 -1.137501
v 0.393957 0.533290 -1.094969
v 0.678212 0.644236 -1.062659
v -0.977854 -0.523381 0.523828
v -1.008325 -0.504316 -0.035544
v -0.973384 -0.492293 -0.644800
v -1.057147 -0.047052 0.541116
v -1.035818 -0.024374 0.008830
v -0.991643 -0.008260 -0.639761
v -1.057612 0.470563 0.585494
v -0.984654 0.479194 0.127421
v -0.927241 0.472223 -0.478625
vt 0.562500 0.187500
vt 0.625000 0.187500
vt 0.625000 0.250000
vt 0.562500 0.250000
vt 0.562500 0.437500
vt 0.625000 0.437500
vt 0.625000 0.500000
vt 0.562500 0.500000
vt 0.562500 0.687500
vt 0.625000 0.687500
vt 0.625000 0.750000
vt 0.562500 0.750000
vt 0.562500 0.937500
vt 0.625000 0.937500
vt 0.625000 1.000000
vt 0.562500 1.000000
vt 0.312500 0.687500
vt 0.375000 0.687500
vt 0.375000 0.750000
vt 0.312500 0.750000
vt 0.812500 0.687500
vt 0.875000 0.687500
vt 0.875000 0.750000
vt 0.812500 0.750000
vt 0.687500 0.687500
vt 0.687500 0.750000
vt 0.750000 0.687500
vt 0.750000 0.750000
vt 0.687500 0.500000
vt 0.687500 0.562500
vt 0.625000 0.562500
vt 0.687500 0.625000
vt 0.625000 0.625000
vt 0.750000 0.500000
vt 0.750000 0.562500
vt 0.750000 0.625000
vt 0.812500 0.500000
vt 0.812500 0.562500
vt 0.812500 0.625000
vt 0.875000 0.500000
vt 0.875000 0.562500
vt 0.875000 0.625000
vt 0.125000 0.687500
vt 0.187500 0.687500
vt 0.187500 0.750000
vt 0.125000 0.750000
vt 0.250000 0.687500
vt 0.250000 0.750000
vt 0.125000 0.500000
vt 0.187500 0.500000
vt 0.187500 0.562500
vt 0.125000 0.562500
vt 0.187500 0.625000
vt 0.125000 0.625000
vt 0.250000 0.500000
vt 0.250000 0.562500
vt 0.250000 0.625000
vt 0.312500 0.500000
vt 0.312500 0.562500
vt 0.312500 0.625000
vt 0.375000 0.500000
vt 0.375000 0.562500
vt 0.375000 0.625000
vt 0.375000 0.937500
vt 0.437500 0.937500
vt 0.437500 1.000000
vt 0.375000 1.000000
vt 0.500000 0.937500
vt 0.500000 1.000000
vt 0.437500 0.750000
vt 0.437500 0.812500
vt 0.375000 0.812500
vt 0.437500 0.875000
vt 0.375000 0.875000
vt 0.500000 0.750000
vt 0.500000 0.812500
vt 0.500000 0.875000
vt 0.562500 0.812500
vt 0.562500 0.875000
vt 0.625000 0.812500
vt 0.625000 0.875000
vt 0.437500 0.687500
vt 0.500000 0.687500
vt 0.437500 0.500000
vt 0.437500 0.562500
vt 0.437500 0.625000
vt 0.500000 0.500000
vt 0.500000 0.562500
vt 0.500000 0.625000
vt 0.562500 0.562500
vt 0.562500 0.625000
vt 0.375000 0.437500
vt 0.437500 0.437500
vt 0.500000 0.437500
vt 0.375000 0.250000
vt 0.437500 0.250000
vt 0.437500 0.312500
vt 0.375000 0.312500
vt 0.437500 0.375000
vt 0.375000 0.375000
vt 0.500000 0.250000
vt 0.500000 0.312500
vt 0.500000 0.375000
vt 0.562500 0.312500
vt 0.562500 0.375000
vt 0.625000 0.312500
vt 0.625000 0.375000
vt 0.375000 0.187500
vt 0.437500 0.187500
vt 0.500000 0.187500
vt 0.375000 0.000000
vt 0.437500 0.000000
vt 0.437500 0.062500
vt 0.375000 0.062500
vt 0.437500 0.125000
vt 0.375000 0.125000
vt 0.500000 0.000000
vt 0.500000 0.062500
vt 0.500000 0.125000
vt 0.562500 0.000000
vt 0.562500 0.062500
vt 0.562500 0.125000
vt 0.625000 0.000000
vt 0.625000 0.062500
vt 0.625000 0.125000
vn -0.9473 0.2703 -0.1717
vn -0.7364 0.6230 -0.2639
vn -0.5446 0.5503 -0.6329
vn -0.6361 0.3251 -0.6998
vn 0.2965 0.2901 -0.9099
vn 0.1880 0.7250 -0.6625
vn 0.6889 0.5061 -0.5189
vn 0.7466 0.1508 -0.6480
vn 0.9629 -0.0444 0.2663
vn 0.6804 0.5351 0.5006
vn 0.5246 0.4655 0.7128
vn 0.7364 0.0255 0.6760
vn -0.1914 0.2119 0.9584
vn -0.1718 0.6893 0.7039
vn -0.6076 0.6067 0.5127
vn -0.7616 0.2096 0.6132
vn 0.0009 -0.9970 0.0772
vn 0.7117 -0.6808 0.1733
vn 0.4577 -0.7591 0.4628
vn 0.0525 -0.8923 0.4484
vn -0.2588 0.9108 0.3218
vn -0.7255 0.6838 0.0777
vn 0.0046 0.8688 0.4951
vn 0.0720 0.5558 0.8282
vn -0.1825 0.8785 0.4415
vn -0.0617 0.5433 0.8373
vn 0.2059 0.9419 -0.2654
vn 0.8722 0.4541 -0.1817
vn 0.1452 0.9709 0.1905
vn 0.7986 0.5505 0.2433
vn -0.1022 0.6451 -0.7572
vn -0.2447 0.9009 -0.3585
vn -0.2638 0.9583 0.1101
vn -0.1697 0.5852 -0.7929
vn -0.3749 0.8521 -0.3652
vn -0.4080 0.9129 0.0097
vn -0.7606 0.6434 -0.0863
vn -0.6624 -0.7488 0.0222
vn -0.0422 -0.9990 0.0113
vn -0.0801 -0.8315 0.5498
vn -0.6130 -0.6753 0.4102
vn 0.0261 -0.9975 0.0651
vn 0.1062 -0.8976 0.4278
vn -0.6176 -0.6656 -0.4189
vn -0.2990 -0.7450 -0.5963
vn -0.1539 -0.9876 -0.0292
vn -0.6903 -0.7203 -0.0687
vn -0.1040 -0.9946 -0.0010
vn -0.6874 -0.7258 -0.0264
vn -0.1354 -0.7765 -0.6154
vn -0.0692 -0.9975 -0.0131
vn -0.0401 -0.9954 0.0872
vn 0.1926 -0.7153 -0.6717
vn 0.0510 -0.9986 -0.0147
vn 0.0431 -0.9905 0.1303
vn 0.6274 -0.6073 -0.4874
vn 0.6437 -0.7601 -0.0893
vn 0.7014 -0.7116 0.0397
vn -0.1466 -0.3232 0.9349
vn -0.8238 -0.2735 0.4966
vn -0.2893 -0.0957 0.9524
vn -0.8462 -0.0896 0.5253
vn 0.6334 -0.1831 0.7518
vn 0.1804 -0.3858 0.9047
vn 0.1105 -0.4237 0.8990
vn 0.6680 0.0123 0.7441
vn 0.1646 -0.0411 0.9855
vn 0.0306 -0.0626 0.9976
vn 0.1743 0.1370 0.9751
vn -0.0147 0.1972 0.9803
vn 0.9727 0.0197 0.2311
vn 0.9715 -0.0478 0.2323
vn 0.7987 -0.0688 -0.5978
vn 0.9726 -0.1411 -0.1847
vn 0.9960 -0.0883 -0.0109
vn 0.7563 -0.0032 -0.6542
vn 0.9634 -0.0683 -0.2592
vn 0.9966 -0.0806 0.0151
vn 0.9751 0.0028 -0.2219
vn 0.9913 -0.0593 0.1178
vn 0.3153 -0.0923 -0.9445
vn 0.2638 0.1080 -0.9585
vn -0.7943 -0.2003 -0.5735
vn -0.2909 -0.2051 -0.9345
vn -0.1071 -0.1860 -0.9767
vn -0.7243 0.0854 -0.6842
vn -0.2250 0.0217 -0.9741
vn -0.0522 0.0766 -0.9957
vn -0.1113 0.2747 -0.9551
vn 0.0058 0.3361 -0.9418
vn -0.9897 -0.1318 -0.0553
vn -0.9876 0.1043 -0.1176
vn -0.9862 -0.1648 0.0152
vn -0.9895 -0.1416 -0.0304
vn -0.9979 -0.0577 -0.0292
vn -0.9983 0.0140 -0.0572
vn -0.9881 0.1418 -0.0592
vn -0.9742 0.1906 -0.1209
usemtl マテリアル
s 1
f 98/1/1 17/2/2 4/3/3 18/4/4
f 89/5/5 26/6/6 8/7/7 27/8/8
f 80/9/9 35/10/10 6/11/11 36/12/12
f 71/13/13 44/14/14 2/15/15 14/16/16
f 62/17/17 30/18/18 5/19/19 41/20/20
f 53/21/21 15/22/22 2/23/15 44/24/14
f 35/10/10 47/25/23 42/26/24 6/11/11
f 47/25/23 50/27/25 43/28/26 42/26/24
f 50/27/25 53/21/21 44/24/14 43/28/26
f 8/7/7 26/29/6 45/30/27 33/31/28
f 33/31/28 45/30/27 46/32/29 34/33/30
f 34/33/30 46/32/29 47/25/23 35/10/10
f 26/29/6 25/34/31 48/35/32 45/30/27
f 45/30/27 48/35/32 49/36/33 46/32/29
f 46/32/29 49/36/33 50/27/25 47/25/23
f 25/34/31 24/37/34 51/38/35 48/35/32
f 48/35/32 51/38/35 52/39/36 49/36/33
f 49/36/33 52/39/36 53/21/21 50/27/25
f 24/37/34 4/40/3 17/41/2 51/38/35
f 51/38/35 17/41/2 16/42/37 52/39/36
f 52/39/36 16/42/37 15/22/22 53/21/21
f 11/43/38 56/44/39 39/45/40 1/46/41
f 56/44/39 59/47/42 40/48/43 39/45/40
f 59/47/42 62/17/17 41/20/20 40/48/43
f 3/49/44 23/50/45 54/51/46 9/52/47
f 9/52/47 54/51/46 55/53/48 10/54/49
f 10/54/49 55/53/48 56/44/39 11/43/38
f 23/50/45 22/55/50 57/56/51 54/51/46
f 54/51/46 57/56/51 58/57/52 55/53/48
f 55/53/48 58/57/52 59/47/42 56/44/39
f 22/55/50 21/58/53 60/59/54 57/56/51
f 57/56/51 60/59/54 61/60/55 58/57/52
f 58/57/52 61/60/55 62/17/17 59/47/42
f 21/58/53 7/61/56 32/62/57 60/59/54
f 60/59/54 32/62/57 31/63/58 61/60/55
f 61/60/55 31/63/58 30/18/18 62/17/17
f 39/64/40 65/65/59 12/66/60 1/67/41
f 65/65/59 68/68/61 13/69/62 12/66/60
f 68/68/61 71/13/13 14/16/16 13/69/62
f 5/19/19 38/70/63 63/71/64 41/72/20
f 41/72/20 63/71/64 64/73/65 40/74/43
f 40/74/43 64/73/65 65/65/59 39/64/40
f 38/70/63 37/75/66 66/76/67 63/71/64
f 63/71/64 66/76/67 67/77/68 64/73/65
f 64/73/65 67/77/68 68/68/61 65/65/59
f 37/75/66 36/12/12 69/78/69 66/76/67
f 66/76/67 69/78/69 70/79/70 67/77/68
f 67/77/68 70/79/70 71/13/13 68/68/61
f 36/12/12 6/11/11 42/80/24 69/78/69
f 69/78/69 42/80/24 43/81/26 70/79/70
f 70/79/70 43/81/26 44/14/14 71/13/13
f 30/18/18 74/82/71 38/70/63 5/19/19
f 74/82/71 77/83/72 37/75/66 38/70/63
f 77/83/72 80/9/9 36/12/12 37/75/66
f 7/61/56 29/84/73 72/85/74 32/62/57
f 32/62/57 72/85/74 73/86/75 31/63/58
f 31/63/58 73/86/75 74/82/71 30/18/18
f 29/84/73 28/87/76 75/88/77 72/85/74
f 72/85/74 75/88/77 76/89/78 73/86/75
f 73/86/75 76/89/78 77/83/72 74/82/71
f 28/87/76 27/8/8 78/90/79 75/88/77
f 75/88/77 78/90/79 79/91/80 76/89/78
f 76/89/78 79/91/80 80/9/9 77/83/72
f 27/8/8 8/7/7 33/31/28 78/90/79
f 78/90/79 33/31/28 34/33/30 79/91/80
f 79/91/80 34/33/30 35/10/10 80/9/9
f 21/92/53 83/93/81 29/84/73 7/61/56
f 83/93/81 86/94/82 28/87/76 29/84/73
f 86/94/82 89/5/5 27/8/8 28/87/76
f 3/95/44 20/96/83 81/97/84 23/98/45
f 23/98/45 81/97/84 82/99/85 22/100/50
f 22/100/50 82/99/85 83/93/81 21/92/53
f 20/96/83 19/101/86 84/102/87 81/97/84
f 81/97/84 84/102/87 85/103/88 82/99/85
f 82/99/85 85/103/88 86/94/82 83/93/81
f 19/101/86 18/4/4 87/104/89 84/102/87
f 84/102/87 87/104/89 88/105/90 85/103/88
f 85/103/88 88/105/90 89/5/5 86/94/82
f 18/4/4 4/3/3 24/106/34 87/104/89
f 87/104/89 24/106/34 25/107/31 88/105/90
f 88/105/90 25/107/31 26/6/6 89/5/5
f 9/108/47 92/109/91 20/96/83 3/95/44
f 92/109/91 95/110/92 19/101/86 20/96/83
f 95/110/92 98/1/1 18/4/4 19/101/86
f 1/111/41 12/112/60 90/113/93 11/114/38
f 11/114/38 90/113/93 91/115/94 10/116/49
f 10/116/49 91/115/94 92/109/91 9/108/47
f 12/112/60 13/117/62 93/118/95 90/113/93
f 90/113/93 93/118/95 94/119/96 91/115/94
f 91/115/94 94/119/96 95/110/92 92/109/91
f 13/117/62 14/120/16 96/121/97 93/118/95
f 93/118/95 96/121/97 97/122/98 94/119/96
f 94/119/96 97/122/98 98/1/1 95/110/92
f 14/120/16 2/123/15 15/124/22 96/121/97
f 96/121/97 15/124/22 16/125/37 97/122/98
f 97/122/98 16/125/37 17/2/2 98/1/1
