# Blender 3.5.1
# www.blender.org
mtllib NormalGun.mtl
o Cube
v 0.303752 1.432771 -0.680995
v 0.303752 0.495630 -0.680995
v 0.303752 1.432771 0.929603
v 0.303752 0.303108 0.913704
v -0.303752 1.432771 -0.680995
v -0.303752 0.495630 -0.680995
v -0.303752 1.432771 0.929603
v -0.303752 0.303108 0.913704
v 0.000000 0.495630 -0.680995
v 0.000000 1.432771 0.929603
v 0.000000 0.303108 0.913704
v 0.000000 1.432771 -0.680995
v -0.303752 0.247550 0.189959
v 0.303752 1.432771 0.189959
v -0.303752 1.432771 0.189959
v 0.303752 0.247550 0.189959
v 0.000000 0.247550 0.189959
v 0.000000 1.432771 0.189959
v 0.303752 0.678495 -0.680995
v -0.303752 0.678495 0.929603
v 0.303752 0.678495 0.929603
v -0.303752 0.678495 -0.680995
v 0.000000 0.678495 -0.680995
v 0.000000 0.678495 0.929603
v 0.303752 0.678495 0.189959
v -0.303752 0.678495 0.189959
v -0.303752 1.432771 -0.465522
v 0.303752 0.247550 -0.465522
v -0.303752 0.247550 -0.465522
v 0.303752 1.432771 -0.465522
v 0.000000 0.247550 -0.465522
v 0.000000 1.432771 -0.465522
v 0.303752 0.678495 -0.465522
v -0.303752 0.678495 -0.465522
v -0.303752 -0.167098 0.262825
v 0.303752 -0.167098 0.262825
v 0.000000 -0.167098 0.262825
v 0.303752 -0.167098 -0.392656
v -0.303752 -0.167098 -0.392656
v 0.000000 -0.167098 -0.392656
v -0.303752 -0.942432 -0.104386
v 0.303752 -0.942432 -0.104386
v 0.000000 -0.942432 -0.104386
v 0.303752 -0.942432 -0.759867
v -0.303752 -0.942432 -0.759867
v 0.000000 -0.942432 -0.759867
v -0.303752 1.055525 0.929603
v 0.303752 1.055525 -0.680995
v 0.303752 1.055525 0.929603
v -0.303752 1.055525 -0.680995
v 0.167398 1.263458 -1.649181
v 0.153409 1.246087 4.754708
v 0.303752 1.055525 0.189959
v -0.303752 1.055525 0.189959
v 0.303752 1.055525 -0.465522
v -0.303752 1.055525 -0.465522
v 0.167398 1.263458 -0.871997
v -0.167398 1.263458 -0.871997
v 0.000000 1.263458 -0.871997
v 0.167398 0.847776 -0.871997
v -0.167398 0.847776 -0.871997
v 0.000000 0.847776 -0.871997
v 0.167398 1.055557 -0.871997
v -0.167398 1.055557 -0.871997
v 0.300851 1.429169 -1.803003
v -0.167398 1.263458 -1.649181
v 0.000000 1.263458 -1.649181
v 0.167398 0.847776 -1.649181
v -0.167398 0.847776 -1.649181
v 0.000000 0.847776 -1.649181
v 0.167398 1.055557 -1.649181
v -0.167398 1.055557 -1.649181
v 0.343630 1.667689 -2.601754
v -0.300851 1.429169 -1.803003
v 0.000000 1.429169 -1.803003
v 0.300851 0.682097 -1.803003
v -0.300851 0.682097 -1.803003
v 0.000000 0.682097 -1.803003
v 0.300851 1.055526 -1.803003
v -0.300851 1.055526 -1.803003
v -0.343630 1.667689 -2.601754
v 0.000000 1.667689 -2.601754
v 0.343630 0.443622 -2.601754
v -0.343630 0.443622 -2.601754
v 0.000000 0.443622 -2.601754
v 0.343630 1.055480 -2.601754
v -0.343630 1.055480 -2.601754
v 0.000000 1.055480 -2.601754
v 0.303752 -0.097073 0.926860
v -0.303752 -0.097073 0.926860
v 0.000000 -0.097073 0.926860
v 0.303752 1.432771 4.545563
v -0.303752 1.432771 4.545563
v 0.000000 1.432771 4.545563
v -0.303752 0.678495 4.545563
v 0.303752 0.678495 4.545563
v 0.000000 0.678495 4.545563
v -0.303752 1.055525 4.545563
v 0.303752 1.055525 4.545563
v 0.153409 1.246087 5.266438
v -0.153409 1.246087 4.754708
v 0.000000 1.246087 4.754708
v -0.153409 0.865143 4.754708
v 0.153409 0.865143 4.754708
v 0.000000 0.865143 4.754708
v -0.153409 1.055561 4.754708
v 0.153409 1.055561 4.754708
v -0.153409 1.246087 5.266438
v 0.000000 1.246087 5.266438
v -0.153409 0.865143 5.266438
v 0.153409 0.865143 5.266438
v 0.000000 0.865143 5.266438
v -0.153409 1.055561 5.266438
v 0.153409 1.055561 5.266438
v 0.000000 1.055561 5.266438
v -0.303752 1.432771 1.784793
v -0.303752 1.055525 1.784793
v -0.303752 0.678495 1.784793
v 0.000000 0.678495 1.784793
v 0.303752 1.055525 1.784793
v 0.303752 0.678495 1.784793
v 0.000000 1.432771 1.784793
v 0.303752 1.432771 1.784793
v 0.303752 -0.035902 1.790524
v -0.303752 -0.035902 1.790524
v 0.000000 -0.035902 1.790524
v 0.303752 -1.250007 1.208112
v -0.303752 -1.250007 1.208112
v 0.000000 -1.250007 1.208112
v 0.303752 -1.188837 2.046179
v -0.303752 -1.188837 2.046179
v 0.000000 -1.188837 2.046179
v -0.303752 -0.151073 -0.395472
v -0.303752 -0.151073 0.260009
v 0.000000 -0.151073 0.260009
v 0.303752 -0.151073 0.260009
v 0.303752 -0.151073 -0.395472
v 0.000000 -0.151073 -0.395472
v -0.303752 -0.085951 0.926494
v 0.000000 -0.085951 0.926494
v 0.303752 -0.085951 0.926494
vn -0.0000 1.0000 -0.0000
vn -1.0000 -0.0000 -0.0000
vn -0.0000 -0.9971 0.0765
vn 1.0000 -0.0000 -0.0000
vn 0.8139 -0.0000 -0.5810
vn -0.8139 -0.0000 -0.5810
vn -0.0000 0.1731 0.9849
vn -0.0000 -0.0423 0.9991
vn -0.0000 -0.0000 -1.0000
vn -0.0000 -0.6557 -0.7550
vn -0.0000 -0.4280 0.9038
vn -0.0000 -0.1731 -0.9849
vn -0.0000 -1.0000 -0.0000
vn -0.0000 0.4280 -0.9038
vn -0.0000 -0.7484 -0.6633
vn -0.0000 0.7483 -0.6633
vn -0.0000 0.6803 0.7329
vn 0.7553 -0.0000 0.6553
vn -0.0000 -0.6804 0.7328
vn -0.7553 -0.0000 0.6553
vn -0.9986 -0.0000 0.0535
vn -0.0000 0.9582 0.2861
vn -0.0000 -0.9582 0.2861
vn 0.9986 -0.0000 0.0535
vn -0.0000 -0.0329 -0.9995
vn -0.0000 -0.9945 0.1049
vn 0.8120 -0.0000 0.5837
vn -0.0000 -0.7461 0.6658
vn -0.8120 -0.0000 0.5837
vn -0.0000 0.7460 0.6659
vn -0.0000 -0.0000 1.0000
vn -0.0000 -0.2370 -0.9715
vn -0.0000 0.0080 1.0000
vn -0.0000 -0.9973 0.0728
vn -0.0000 0.2165 0.9763
vn -0.0000 0.9953 -0.0972
vt 0.625000 0.500000
vt 0.375000 0.500000
vt 0.625000 0.750000
vt 0.375000 0.750000
vt 0.000000 0.000000
vt 0.625000 0.250000
vt 0.875000 0.500000
vt 0.125000 0.500000
vt 0.375000 0.250000
vt 0.625000 0.000000
vt 0.875000 0.750000
vt 0.375000 0.000000
vt 0.375000 1.000000
vt 0.125000 0.750000
vt 0.375000 0.375000
vt 0.250000 0.500000
vt 0.750000 0.750000
vt 0.375000 0.875000
vt 0.250000 0.750000
vt 0.750000 0.500000
vt 0.125000 0.625000
vt 0.375000 0.125000
vt 0.625000 0.625000
vt 0.875000 0.625000
vt 0.625000 0.125000
vt 0.375000 0.625000
vt 0.250000 0.625000
vt 0.750000 0.625000
vt 0.500000 0.500000
vt 0.500000 1.000000
vt 0.500000 0.000000
vt 0.500000 0.750000
vt 0.000000 0.000000
vt 0.500000 0.250000
vt 0.500000 0.375000
vt 0.500000 0.875000
vt 0.500000 0.625000
vt 0.500000 0.125000
vt 0.875000 0.562500
vt 0.625000 0.187500
vt 0.375000 0.562500
vt 0.125000 0.562500
vt 0.375000 0.187500
vt 0.625000 0.562500
vt 0.250000 0.562500
vt 0.750000 0.562500
vt 0.500000 0.562500
vt 0.500000 0.187500
vt 0.375000 0.125000
vt 0.125000 0.625000
vt 0.000000 0.000000
vt 0.375000 0.625000
vt 0.000000 0.000000
vt 0.250000 0.625000
vt 0.000000 0.000000
vt 0.375000 0.562500
vt 0.125000 0.562500
vt 0.375000 0.187500
vt 0.250000 0.562500
vt 0.125000 0.625000
vt 0.375000 0.125000
vt 0.375000 0.625000
vt 0.250000 0.625000
vt 0.375000 0.562500
vt 0.375000 0.187500
vt 0.125000 0.562500
vt 0.250000 0.562500
vt 0.562482 0.000000
vt 0.562482 0.500000
vt 0.562482 0.750000
vt 0.562482 0.250000
vt 0.625000 0.500000
vt 0.625000 0.750000
vt 0.562482 0.625000
vt 0.562482 0.125000
vt 0.562482 0.562500
vt 0.562482 0.187500
vt 0.625000 0.500000
vt 0.875000 0.500000
vt 0.625000 0.250000
vt 0.750000 0.500000
vt 0.500000 0.500000
vt 0.500000 0.250000
vt 0.500000 0.375000
vt 0.562482 0.500000
vt 0.562482 0.250000
vt 0.625000 0.500000
vt 0.625000 0.250000
vt 0.875000 0.500000
vt 0.750000 0.500000
vt 0.500000 0.500000
vt 0.500000 0.250000
vt 0.500000 0.375000
vt 0.562482 0.500000
vt 0.562482 0.250000
vt 0.625000 0.500000
vt 0.625000 0.250000
vt 0.875000 0.500000
vt 0.750000 0.500000
vt 0.500000 0.500000
vt 0.500000 0.250000
vt 0.500000 0.375000
vt 0.562482 0.500000
vt 0.562482 0.250000
vt 0.875000 0.500000
vt 0.625000 0.250000
vt 0.625000 0.375000
vt 0.750000 0.500000
vt 0.500000 0.500000
vt 0.500000 0.250000
vt 0.500000 0.375000
vt 0.562482 0.500000
vt 0.562482 0.250000
vt 0.562482 0.375000
vt 0.375000 0.750000
vt 0.000000 0.000000
vt 0.125000 0.750000
vt 0.000000 0.000000
vt 0.250000 0.750000
vt 0.000000 0.000000
vt 0.625000 0.750000
vt 0.625000 0.000000
vt 0.875000 0.750000
vt 0.750000 0.750000
vt 0.500000 1.000000
vt 0.500000 0.000000
vt 0.500000 0.750000
vt 0.500000 0.875000
vt 0.562482 0.000000
vt 0.562482 0.750000
vt 0.625000 0.750000
vt 0.625000 0.000000
vt 0.875000 0.750000
vt 0.750000 0.750000
vt 0.500000 0.000000
vt 0.500000 1.000000
vt 0.500000 0.750000
vt 0.500000 0.875000
vt 0.562482 0.000000
vt 0.562482 0.750000
vt 0.625000 0.000000
vt 0.625000 1.000000
vt 0.875000 0.750000
vt 0.625000 0.875000
vt 0.750000 0.750000
vt 0.500000 0.000000
vt 0.500000 1.000000
vt 0.500000 0.750000
vt 0.500000 0.875000
vt 0.562482 0.000000
vt 0.562482 1.000000
vt 0.562482 0.750000
vt 0.562482 0.875000
vt 0.625000 0.000000
vt 0.875000 0.750000
vt 0.562482 0.000000
vt 0.500000 1.000000
vt 0.500000 0.000000
vt 0.500000 0.875000
vt 0.562482 0.750000
vt 0.500000 0.750000
vt 0.000000 0.000000
vt 0.750000 0.750000
vt 0.625000 0.750000
vt 0.375000 0.750000
vt 0.000000 0.000000
vt 0.000000 0.000000
vt 0.250000 0.750000
vt 0.000000 0.000000
vt 0.375000 0.750000
vt 0.125000 0.750000
vt 0.000000 0.000000
vt 0.250000 0.750000
vt 0.000000 0.000000
vt 0.000000 0.000000
vt 0.375000 0.750000
vt 0.125000 0.750000
vt 0.000000 0.000000
vt 0.250000 0.750000
vt 0.125000 0.562500
vt 0.375000 0.187500
vt 0.375000 0.125000
vt 0.125000 0.625000
vt 0.000000 0.000000
vt 0.250000 0.625000
vt 0.000000 0.000000
vt 0.375000 0.625000
vt 0.000000 0.000000
vt 0.375000 0.562500
vt 0.250000 0.562500
vt 0.125000 0.750000
vt 0.000000 0.000000
vt 0.250000 0.750000
vt 0.000000 0.000000
vt 0.375000 0.750000
vt 0.000000 0.000000
s 0
usemtl Material
f 15/24/1 10/17/1 18/28/1
f 116/155/1 94/124/1 122/163/1
f 27/40/2 50/71/2 56/77/2
f 16/26/3 11/19/3 17/27/3
f 14/23/4 49/70/4 53/74/4
f 48/69/5 57/78/5 1/1/5
f 50/71/6 58/80/6 64/86/6
f 17/27/3 8/14/3 13/21/3
f 120/160/4 96/127/4 121/161/4
f 18/28/1 3/3/1 14/23/1
f 32/46/1 14/23/1 30/44/1
f 135/185/7 36/52/7 136/187/7
f 30/44/4 53/74/4 55/76/4
f 134/182/2 39/58/2 35/49/2
f 7/10/2 54/75/2 47/68/2
f 27/39/1 18/28/1 32/46/1
f 8/12/2 26/38/2 13/22/2
f 33/47/4 16/26/4 28/41/4
f 21/32/8 11/18/8 4/4/8
f 22/34/9 9/15/9 6/9/9
f 23/35/9 2/2/9 9/15/9
f 25/37/4 4/4/4 16/26/4
f 34/48/2 6/9/2 29/43/2
f 24/36/8 8/13/8 11/18/8
f 26/38/2 29/43/2 13/22/2
f 2/2/4 33/47/4 28/41/4
f 5/7/1 32/46/1 12/20/1
f 2/2/10 31/45/10 9/16/10
f 1/1/4 55/76/4 48/69/4
f 9/16/10 29/42/10 6/8/10
f 12/20/1 30/44/1 1/1/1
f 15/25/2 56/77/2 54/75/2
f 35/50/11 43/63/11 37/54/11
f 38/56/4 42/62/4 44/64/4
f 134/183/7 37/54/7 135/185/7
f 136/187/4 38/56/4 137/189/4
f 138/190/12 39/57/12 133/180/12
f 137/189/12 40/59/12 138/190/12
f 46/67/13 41/60/13 45/66/13
f 44/64/13 43/63/13 46/67/13
f 39/58/2 41/61/2 35/49/2
f 38/56/14 46/67/14 40/59/14
f 37/54/11 42/62/11 36/52/11
f 40/59/14 45/66/14 39/57/14
f 54/75/2 34/48/2 26/38/2
f 48/69/4 33/47/4 19/29/4
f 47/68/2 26/38/2 20/31/2
f 55/76/4 25/37/4 33/47/4
f 117/156/2 93/122/2 116/154/2
f 23/35/15 60/82/15 19/29/15
f 50/71/6 61/83/6 22/34/6
f 53/74/4 21/32/4 25/37/4
f 56/77/2 22/34/2 34/48/2
f 119/159/13 95/125/13 118/157/13
f 61/83/13 70/93/13 62/84/13
f 63/85/4 51/72/4 57/78/4
f 57/78/1 67/90/1 59/81/1
f 60/82/4 71/94/4 63/85/4
f 23/35/15 61/83/15 62/84/15
f 12/20/16 57/78/16 59/81/16
f 48/69/5 60/82/5 63/85/5
f 12/20/16 58/79/16 5/7/16
f 51/72/17 75/99/17 67/90/17
f 68/91/18 79/103/18 71/94/18
f 68/91/19 78/102/19 76/100/19
f 66/88/20 80/104/20 72/95/20
f 64/86/2 69/92/2 61/83/2
f 59/81/1 66/89/1 58/79/1
f 58/80/2 72/95/2 64/86/2
f 62/84/13 68/91/13 60/82/13
f 74/97/21 87/113/21 80/104/21
f 74/98/22 82/108/22 81/105/22
f 77/101/21 87/113/21 84/110/21
f 77/101/23 85/111/23 78/102/23
f 51/72/18 79/103/18 65/87/18
f 69/92/19 78/102/19 70/93/19
f 69/92/20 80/104/20 77/101/20
f 66/89/17 75/99/17 74/98/17
f 82/107/9 86/112/9 88/114/9
f 81/106/9 88/114/9 87/113/9
f 87/113/9 85/111/9 84/110/9
f 88/114/9 83/109/9 85/111/9
f 76/100/23 85/111/23 83/109/23
f 76/100/24 86/112/24 79/103/24
f 65/87/22 82/108/22 75/99/22
f 65/87/24 86/112/24 73/96/24
f 91/119/25 139/191/25 140/193/25
f 89/115/25 140/193/25 141/195/25
f 37/55/26 91/120/26 35/51/26
f 99/130/27 104/137/27 96/127/27
f 97/128/28 104/137/28 105/138/28
f 98/129/29 103/135/29 106/139/29
f 98/129/29 101/132/29 93/122/29
f 123/164/4 99/130/4 120/160/4
f 122/163/1 92/121/1 123/164/1
f 118/158/2 98/129/2 117/156/2
f 121/161/13 97/128/13 119/159/13
f 103/135/2 113/150/2 106/139/2
f 106/139/2 108/141/2 101/132/2
f 102/134/1 100/131/1 52/73/1
f 105/138/13 110/147/13 103/136/13
f 94/124/30 101/133/30 102/134/30
f 99/130/27 52/73/27 107/140/27
f 97/128/28 103/136/28 95/125/28
f 94/124/30 52/73/30 92/121/30
f 109/144/31 113/151/31 115/153/31
f 100/131/31 115/153/31 114/152/31
f 114/152/31 112/149/31 111/148/31
f 115/153/31 110/147/31 112/149/31
f 104/137/13 112/149/13 105/138/13
f 107/140/4 111/148/4 104/137/4
f 101/133/1 109/145/1 102/134/1
f 52/73/4 114/152/4 107/140/4
f 21/32/13 119/159/13 24/36/13
f 20/31/2 117/156/2 47/68/2
f 10/17/1 123/164/1 3/3/1
f 3/3/4 120/160/4 49/70/4
f 24/36/13 118/157/13 20/30/13
f 47/68/2 116/154/2 7/10/2
f 49/70/4 121/161/4 21/32/4
f 7/11/1 122/163/1 10/17/1
f 124/166/4 127/169/4 89/116/4
f 89/116/32 129/174/32 91/120/32
f 119/159/33 125/167/33 126/168/33
f 125/167/2 20/31/2 139/191/2
f 121/162/4 89/116/4 141/196/4
f 129/173/34 131/177/34 128/171/34
f 127/170/34 132/179/34 129/173/34
f 126/168/35 130/176/35 124/165/35
f 91/120/32 128/172/32 90/118/32
f 125/167/2 128/172/2 131/178/2
f 125/167/35 132/179/35 126/168/35
f 28/41/12 138/190/12 31/45/12
f 31/45/12 133/180/12 29/42/12
f 16/26/4 137/189/4 28/41/4
f 13/21/7 135/185/7 17/27/7
f 13/22/2 133/181/2 134/182/2
f 17/27/7 136/187/7 16/26/7
f 141/195/25 11/19/25 4/4/25
f 140/193/25 8/14/25 11/19/25
f 140/194/36 136/188/36 135/186/36
f 139/192/2 35/51/2 90/118/2
f 36/53/2 141/196/2 136/188/2
f 15/24/1 7/11/1 10/17/1
f 116/155/1 93/123/1 94/124/1
f 27/40/2 5/6/2 50/71/2
f 16/26/3 4/4/3 11/19/3
f 14/23/4 3/3/4 49/70/4
f 48/69/5 63/85/5 57/78/5
f 50/71/6 5/6/6 58/80/6
f 17/27/3 11/19/3 8/14/3
f 120/160/4 99/130/4 96/127/4
f 18/28/1 10/17/1 3/3/1
f 32/46/1 18/28/1 14/23/1
f 135/185/7 37/54/7 36/52/7
f 30/44/4 14/23/4 53/74/4
f 134/182/2 133/181/2 39/58/2
f 7/10/2 15/25/2 54/75/2
f 27/39/1 15/24/1 18/28/1
f 8/12/2 20/31/2 26/38/2
f 33/47/4 25/37/4 16/26/4
f 21/32/8 24/36/8 11/18/8
f 22/34/9 23/35/9 9/15/9
f 23/35/9 19/29/9 2/2/9
f 25/37/4 21/32/4 4/4/4
f 34/48/2 22/34/2 6/9/2
f 24/36/8 20/30/8 8/13/8
f 26/38/2 34/48/2 29/43/2
f 2/2/4 19/29/4 33/47/4
f 5/7/1 27/39/1 32/46/1
f 2/2/10 28/41/10 31/45/10
f 1/1/4 30/44/4 55/76/4
f 9/16/10 31/45/10 29/42/10
f 12/20/1 32/46/1 30/44/1
f 15/25/2 27/40/2 56/77/2
f 35/50/11 41/60/11 43/63/11
f 38/56/4 36/52/4 42/62/4
f 134/183/7 35/50/7 37/54/7
f 136/187/4 36/52/4 38/56/4
f 138/190/12 40/59/12 39/57/12
f 137/189/12 38/56/12 40/59/12
f 46/67/13 43/63/13 41/60/13
f 44/64/13 42/62/13 43/63/13
f 39/58/2 45/65/2 41/61/2
f 38/56/14 44/64/14 46/67/14
f 37/54/11 43/63/11 42/62/11
f 40/59/14 46/67/14 45/66/14
f 54/75/2 56/77/2 34/48/2
f 48/69/4 55/76/4 33/47/4
f 47/68/2 54/75/2 26/38/2
f 55/76/4 53/74/4 25/37/4
f 117/156/2 98/129/2 93/122/2
f 23/35/15 62/84/15 60/82/15
f 50/71/6 64/86/6 61/83/6
f 53/74/4 49/70/4 21/32/4
f 56/77/2 50/71/2 22/34/2
f 119/159/13 97/128/13 95/125/13
f 61/83/13 69/92/13 70/93/13
f 63/85/4 71/94/4 51/72/4
f 57/78/1 51/72/1 67/90/1
f 60/82/4 68/91/4 71/94/4
f 23/35/15 22/34/15 61/83/15
f 12/20/16 1/1/16 57/78/16
f 48/69/5 19/29/5 60/82/5
f 12/20/16 59/81/16 58/79/16
f 51/72/17 65/87/17 75/99/17
f 68/91/18 76/100/18 79/103/18
f 68/91/19 70/93/19 78/102/19
f 66/88/20 74/97/20 80/104/20
f 64/86/2 72/95/2 69/92/2
f 59/81/1 67/90/1 66/89/1
f 58/80/2 66/88/2 72/95/2
f 62/84/13 70/93/13 68/91/13
f 74/97/21 81/106/21 87/113/21
f 74/98/22 75/99/22 82/108/22
f 77/101/21 80/104/21 87/113/21
f 77/101/23 84/110/23 85/111/23
f 51/72/18 71/94/18 79/103/18
f 69/92/19 77/101/19 78/102/19
f 69/92/20 72/95/20 80/104/20
f 66/89/17 67/90/17 75/99/17
f 82/107/9 73/96/9 86/112/9
f 81/106/9 82/107/9 88/114/9
f 87/113/9 88/114/9 85/111/9
f 88/114/9 86/112/9 83/109/9
f 76/100/23 78/102/23 85/111/23
f 76/100/24 83/109/24 86/112/24
f 65/87/22 73/96/22 82/108/22
f 65/87/24 79/103/24 86/112/24
f 91/119/25 90/117/25 139/191/25
f 89/115/25 91/119/25 140/193/25
f 37/55/26 36/53/26 89/116/26
f 91/120/26 90/118/26 35/51/26
f 37/55/26 89/116/26 91/120/26
f 99/130/27 107/140/27 104/137/27
f 97/128/28 96/127/28 104/137/28
f 98/129/29 95/126/29 103/135/29
f 98/129/29 106/139/29 101/132/29
f 123/164/4 92/121/4 99/130/4
f 122/163/1 94/124/1 92/121/1
f 118/158/2 95/126/2 98/129/2
f 121/161/13 96/127/13 97/128/13
f 103/135/2 110/146/2 113/150/2
f 106/139/2 113/150/2 108/141/2
f 102/134/1 109/145/1 100/131/1
f 105/138/13 112/149/13 110/147/13
f 94/124/30 93/123/30 101/133/30
f 99/130/27 92/121/27 52/73/27
f 97/128/28 105/138/28 103/136/28
f 94/124/30 102/134/30 52/73/30
f 109/144/31 108/142/31 113/151/31
f 100/131/31 109/144/31 115/153/31
f 114/152/31 115/153/31 112/149/31
f 115/153/31 113/151/31 110/147/31
f 104/137/13 111/148/13 112/149/13
f 107/140/4 114/152/4 111/148/4
f 101/133/1 108/143/1 109/145/1
f 52/73/4 100/131/4 114/152/4
f 21/32/13 121/161/13 119/159/13
f 20/31/2 118/158/2 117/156/2
f 10/17/1 122/163/1 123/164/1
f 3/3/4 123/164/4 120/160/4
f 24/36/13 119/159/13 118/157/13
f 47/68/2 117/156/2 116/154/2
f 49/70/4 120/160/4 121/161/4
f 7/11/1 116/155/1 122/163/1
f 124/166/4 130/175/4 127/169/4
f 89/116/32 127/169/32 129/174/32
f 126/168/33 124/165/33 121/161/33
f 119/159/33 118/157/33 125/167/33
f 126/168/33 121/161/33 119/159/33
f 139/191/2 90/117/2 125/167/2
f 125/167/2 118/158/2 20/31/2
f 20/31/2 8/14/2 139/191/2
f 4/5/4 21/33/4 121/162/4
f 121/162/4 124/166/4 89/116/4
f 141/196/4 4/5/4 121/162/4
f 129/173/34 132/179/34 131/177/34
f 127/170/34 130/176/34 132/179/34
f 126/168/35 132/179/35 130/176/35
f 91/120/32 129/174/32 128/172/32
f 125/167/2 90/118/2 128/172/2
f 125/167/35 131/178/35 132/179/35
f 28/41/12 137/189/12 138/190/12
f 31/45/12 138/190/12 133/180/12
f 16/26/4 136/187/4 137/189/4
f 13/21/7 134/183/7 135/185/7
f 13/22/2 29/43/2 133/181/2
f 17/27/7 135/185/7 136/187/7
f 141/195/25 140/193/25 11/19/25
f 140/193/25 139/191/25 8/14/25
f 135/186/36 134/184/36 139/192/36
f 140/194/36 141/196/36 136/188/36
f 135/186/36 139/192/36 140/194/36
f 139/192/2 134/184/2 35/51/2
f 36/53/2 89/116/2 141/196/2
