# Blender v3.1.2 OBJ File: ''
# www.blender.org
mtllib Block.mtl
o Cube
v 1.167357 1.135948 -1.120929
v 0.718939 -0.987707 -0.914870
v 1.832847 0.995964 1.071847
v 1.138827 -1.063734 1.003089
v -1.133613 0.907997 -1.082607
v -1.151739 -1.212082 -1.194159
v -1.037971 0.940325 0.989182
v -1.196989 -1.077566 1.030554
v -1.293537 -1.323908 -0.638050
v -1.288359 -1.244338 -0.034138
v -1.313666 -1.183801 0.634838
v 0.263567 -1.123498 -1.144278
v -0.119448 -1.184109 -1.298146
v -0.585638 -1.242067 -1.323744
v 1.415506 0.360485 -1.252454
v 1.468709 -0.198107 -0.921534
v 1.077075 -0.588693 -0.887322
v -1.262606 -0.510203 1.142689
v -1.341235 -0.003515 1.107903
v -1.145944 0.501410 1.089093
v 2.032302 0.395115 1.096237
v 1.562352 -0.189663 1.112821
v 1.459116 -0.612397 1.147052
v -1.211059 0.380141 -1.003092
v -1.157274 -0.096167 -0.979137
v -1.063877 -0.647856 -1.139371
v 1.191123 1.234854 0.899205
v 0.604238 1.290681 0.913497
v -0.190917 1.125914 0.958511
v 1.537315 0.980946 -0.744115
v 1.642107 0.986015 -0.078502
v 2.053418 0.943009 0.657480
v -0.625393 -1.227133 0.905084
v -0.355892 -1.080940 0.883146
v 0.395753 -1.033292 1.023050
v -1.129715 1.006202 0.529022
v -1.285111 0.967764 0.132784
v -1.352069 0.957261 -0.363646
v -0.388401 0.820241 -1.268136
v 0.214108 0.872662 -1.427579
v 0.605410 1.256665 -1.161608
v 1.258085 -1.095642 0.607662
v 1.061185 -1.159624 0.138278
v 1.057327 -1.047908 -0.478499
v -0.109867 -0.740008 -1.626919
v 0.414166 -0.747850 -1.752232
v 0.686705 -0.680450 -1.502957
v -0.301591 -0.239325 -1.607028
v 0.439324 -0.278638 -1.913555
v 0.832632 -0.076632 -1.090821
v -0.248700 0.227674 -1.586740
v 0.427627 0.264968 -1.933619
v 0.863659 0.455363 -1.169736
v 1.545322 -0.657788 -0.328186
v 1.774000 -0.740313 0.173837
v 1.767080 -0.676080 0.821682
v 1.775108 -0.234677 -0.226616
v 1.821039 -0.227215 0.243517
v 2.008895 -0.235248 0.759009
v 1.766616 0.216712 -0.223869
v 2.137363 0.234886 0.310323
v 2.447824 0.335754 0.730890
v -1.252850 -1.481456 -0.854551
v -0.920067 -1.470502 -0.211732
v -0.876071 -1.379732 0.345090
v -0.823852 -1.477295 -0.898885
v -0.838658 -1.423060 -0.268986
v -0.811831 -1.431127 0.198660
v -0.247111 -1.416157 -0.773071
v -0.107186 -1.476709 -0.242675
v 0.240128 -1.222126 0.408693
v -1.549125 -0.614443 0.783102
v -1.518234 -0.550239 0.206614
v -1.323240 -0.646658 -0.410066
v -1.580545 -0.013888 0.742813
v -1.555730 -0.042842 0.159946
v -1.599871 -0.042251 -0.270122
v -1.358453 0.546573 0.603450
v -1.591359 0.470198 0.266468
v -1.541690 0.477013 -0.306699
v 0.679557 -0.579239 1.123959
v -0.110311 -0.492842 1.002197
v -0.531146 -0.525907 0.981679
v 0.713852 -0.048868 1.052766
v -0.036004 -0.029631 1.030541
v -0.704929 0.004239 1.093308
v 0.762725 0.530320 0.962024
v 0.196133 0.587093 1.039554
v -0.491241 0.529025 1.022764
v 1.088129 1.547437 -0.814186
v 1.381424 1.546076 -0.342611
v 1.439297 1.518304 0.171160
v 0.120080 1.262028 -0.700874
v 0.414636 1.574336 -0.276270
v 0.724522 1.586092 0.198220
v -0.543417 1.055258 -0.577459
v -0.488787 1.201314 0.008644
v -0.374204 1.229786 0.428944
vt 0.812500 0.687500
vt 0.875000 0.687500
vt 0.875000 0.750000
vt 0.812500 0.750000
vt 0.562500 0.937500
vt 0.625000 0.937500
vt 0.625000 1.000000
vt 0.562500 1.000000
vt 0.562500 0.187500
vt 0.625000 0.187500
vt 0.625000 0.250000
vt 0.562500 0.250000
vt 0.312500 0.687500
vt 0.375000 0.687500
vt 0.375000 0.750000
vt 0.312500 0.750000
vt 0.562500 0.687500
vt 0.625000 0.687500
vt 0.625000 0.750000
vt 0.562500 0.750000
vt 0.562500 0.437500
vt 0.625000 0.437500
vt 0.625000 0.500000
vt 0.562500 0.500000
vt 0.375000 0.437500
vt 0.437500 0.437500
vt 0.437500 0.500000
vt 0.375000 0.500000
vt 0.500000 0.437500
vt 0.500000 0.500000
vt 0.375000 0.250000
vt 0.437500 0.250000
vt 0.437500 0.312500
vt 0.375000 0.312500
vt 0.437500 0.375000
vt 0.375000 0.375000
vt 0.500000 0.250000
vt 0.500000 0.312500
vt 0.500000 0.375000
vt 0.562500 0.312500
vt 0.562500 0.375000
vt 0.625000 0.312500
vt 0.625000 0.375000
vt 0.437500 0.687500
vt 0.437500 0.750000
vt 0.500000 0.687500
vt 0.500000 0.750000
vt 0.437500 0.562500
vt 0.375000 0.562500
vt 0.437500 0.625000
vt 0.375000 0.625000
vt 0.500000 0.562500
vt 0.500000 0.625000
vt 0.562500 0.562500
vt 0.562500 0.625000
vt 0.625000 0.562500
vt 0.625000 0.625000
vt 0.125000 0.687500
vt 0.187500 0.687500
vt 0.187500 0.750000
vt 0.125000 0.750000
vt 0.250000 0.687500
vt 0.250000 0.750000
vt 0.125000 0.500000
vt 0.187500 0.500000
vt 0.187500 0.562500
vt 0.125000 0.562500
vt 0.187500 0.625000
vt 0.125000 0.625000
vt 0.250000 0.500000
vt 0.250000 0.562500
vt 0.250000 0.625000
vt 0.312500 0.500000
vt 0.312500 0.562500
vt 0.312500 0.625000
vt 0.375000 0.187500
vt 0.437500 0.187500
vt 0.500000 0.187500
vt 0.375000 0.000000
vt 0.437500 0.000000
vt 0.437500 0.062500
vt 0.375000 0.062500
vt 0.437500 0.125000
vt 0.375000 0.125000
vt 0.500000 0.000000
vt 0.500000 0.062500
vt 0.500000 0.125000
vt 0.562500 0.000000
vt 0.562500 0.062500
vt 0.562500 0.125000
vt 0.625000 0.000000
vt 0.625000 0.062500
vt 0.625000 0.125000
vt 0.375000 0.937500
vt 0.437500 0.937500
vt 0.437500 1.000000
vt 0.375000 1.000000
vt 0.500000 0.937500
vt 0.500000 1.000000
vt 0.437500 0.812500
vt 0.375000 0.812500
vt 0.437500 0.875000
vt 0.375000 0.875000
vt 0.500000 0.812500
vt 0.500000 0.875000
vt 0.562500 0.812500
vt 0.562500 0.875000
vt 0.625000 0.812500
vt 0.625000 0.875000
vt 0.687500 0.687500
vt 0.687500 0.750000
vt 0.750000 0.687500
vt 0.750000 0.750000
vt 0.687500 0.500000
vt 0.687500 0.562500
vt 0.687500 0.625000
vt 0.750000 0.500000
vt 0.750000 0.562500
vt 0.750000 0.625000
vt 0.812500 0.500000
vt 0.812500 0.562500
vt 0.812500 0.625000
vt 0.875000 0.500000
vt 0.875000 0.562500
vt 0.875000 0.625000
vn -0.2593 0.9511 0.1675
vn -0.5647 0.7922 0.2313
vn -0.4329 0.5934 0.6785
vn -0.1228 0.6451 0.7542
vn 0.0359 0.0948 0.9948
vn -0.4421 0.2783 0.8527
vn -0.9606 0.1773 -0.2140
vn -0.6625 0.7209 -0.2035
vn -0.4995 0.6300 -0.5947
vn -0.7368 0.0893 -0.6702
vn 0.0856 -0.9629 0.2560
vn 0.3885 -0.9012 0.1923
vn 0.2025 -0.7338 0.6485
vn -0.0498 -0.6408 0.7661
vn 0.9921 -0.0432 0.1182
vn 0.7922 0.6069 0.0642
vn 0.3100 0.5211 0.7952
vn 0.4410 0.0362 0.8968
vn 0.3839 0.0501 -0.9220
vn -0.0097 0.7035 -0.7106
vn 0.4306 0.3561 -0.8293
vn 0.5249 -0.0673 -0.8485
vn 0.3923 -0.8433 -0.3673
vn 0.7199 -0.4134 -0.5575
vn 0.6601 -0.4152 -0.6260
vn 0.5056 -0.7616 -0.4054
vn 0.6023 -0.1439 -0.7852
vn 0.7092 -0.2694 -0.6515
vn -0.7048 -0.2182 -0.6750
vn -0.7196 -0.0099 -0.6943
vn -0.2793 -0.2982 -0.9127
vn -0.1986 -0.5665 -0.7998
vn 0.3265 -0.4876 -0.8097
vn 0.1421 -0.8132 -0.5644
vn -0.7556 -0.0621 -0.6521
vn -0.4714 -0.0316 -0.8813
vn 0.3245 -0.0795 -0.9425
vn -0.4395 0.1759 -0.8809
vn 0.2723 0.2139 -0.9381
vn -0.3205 0.6488 -0.6901
vn -0.0267 0.6799 -0.7328
vn 0.7837 -0.5212 0.3377
vn 0.3542 -0.2912 0.8887
vn 0.8525 -0.4414 0.2799
vn 0.2597 -0.0553 0.9641
vn 0.7270 -0.5622 -0.3943
vn 0.5044 -0.7812 -0.3678
vn 0.8063 -0.5655 -0.1732
vn 0.3720 -0.9279 -0.0253
vn 0.8935 -0.2567 -0.3685
vn 0.9024 -0.3260 -0.2818
vn 0.9259 0.0108 -0.3777
vn 0.8901 -0.1017 -0.4443
vn 0.8484 0.3229 -0.4195
vn 0.8639 0.3622 -0.3500
vn -0.6677 -0.7033 0.2441
vn -0.0414 -0.9809 0.1900
vn 0.1560 -0.7381 0.6564
vn -0.3316 -0.5409 0.7730
vn 0.1132 -0.9800 0.1635
vn 0.0703 -0.6221 0.7798
vn -0.3431 -0.8836 -0.3187
vn -0.8690 -0.4820 -0.1122
vn -0.1764 -0.9781 0.1105
vn -0.7966 -0.6039 0.0281
vn 0.0766 -0.9677 -0.2402
vn 0.0648 -0.9957 0.0664
vn 0.1862 -0.9605 -0.2066
vn 0.1461 -0.9889 0.0282
vn -0.9594 -0.1241 -0.2533
vn -0.9639 -0.1113 -0.2420
vn -0.3613 -0.1498 0.9203
vn -0.9348 -0.2114 0.2854
vn -0.9749 -0.2083 -0.0792
vn -0.4964 0.1217 0.8595
vn -0.9431 0.1166 0.3113
vn -0.9990 -0.0438 -0.0026
vn -0.8626 0.3817 0.3320
vn -0.9474 0.2853 0.1454
vn -0.6237 0.7783 0.0725
vn 0.0941 -0.1285 0.9872
vn 0.0711 -0.0110 0.9974
vn -0.0661 -0.0653 0.9957
vn -0.0537 -0.0911 0.9944
vn -0.0389 0.0877 0.9954
vn 0.0035 0.0061 1.0000
vn -0.0045 0.0880 0.9961
vn 0.0339 0.0898 0.9954
vn 0.1247 0.6293 0.7671
vn -0.0148 0.6425 0.7661
vn 0.4761 0.8785 0.0401
vn -0.0547 0.9801 0.1908
vn 0.2568 0.8449 -0.4694
vn 0.5262 0.8155 -0.2411
vn -0.3184 0.8857 -0.3378
vn -0.2151 0.9716 -0.0984
vn -0.2290 0.9404 -0.2512
vn -0.3056 0.9503 -0.0596
usemtl Material
s 1
f 98/1/1 36/2/2 7/3/3 29/4/4
f 89/5/5 29/6/4 7/7/3 20/8/6
f 80/9/7 38/10/8 5/11/9 24/12/10
f 71/13/11 42/14/12 4/15/13 35/16/14
f 62/17/15 32/18/16 3/19/17 21/20/18
f 53/21/19 41/22/20 1/23/21 15/24/22
f 12/25/23 47/26/24 17/27/25 2/28/26
f 47/26/24 50/29/27 16/30/28 17/27/25
f 50/29/27 53/21/19 15/24/22 16/30/28
f 6/31/29 26/32/30 45/33/31 14/34/32
f 14/34/32 45/33/31 46/35/33 13/36/34
f 13/36/34 46/35/33 47/26/24 12/25/23
f 26/32/30 25/37/35 48/38/36 45/33/31
f 45/33/31 48/38/36 49/39/37 46/35/33
f 46/35/33 49/39/37 50/29/27 47/26/24
f 25/37/35 24/12/10 51/40/38 48/38/36
f 48/38/36 51/40/38 52/41/39 49/39/37
f 49/39/37 52/41/39 53/21/19 50/29/27
f 24/12/10 5/11/9 39/42/40 51/40/38
f 51/40/38 39/42/40 40/43/41 52/41/39
f 52/41/39 40/43/41 41/22/20 53/21/19
f 42/14/12 56/44/42 23/45/43 4/15/13
f 56/44/42 59/46/44 22/47/45 23/45/43
f 59/46/44 62/17/15 21/20/18 22/47/45
f 2/28/26 17/27/25 54/48/46 44/49/47
f 44/49/47 54/48/46 55/50/48 43/51/49
f 43/51/49 55/50/48 56/44/42 42/14/12
f 17/27/25 16/30/28 57/52/50 54/48/46
f 54/48/46 57/52/50 58/53/51 55/50/48
f 55/50/48 58/53/51 59/46/44 56/44/42
f 16/30/28 15/24/22 60/54/52 57/52/50
f 57/52/50 60/54/52 61/55/53 58/53/51
f 58/53/51 61/55/53 62/17/15 59/46/44
f 15/24/22 1/23/21 30/56/54 60/54/52
f 60/54/52 30/56/54 31/57/55 61/55/53
f 61/55/53 31/57/55 32/18/16 62/17/15
f 11/58/56 65/59/57 33/60/58 8/61/59
f 65/59/57 68/62/60 34/63/61 33/60/58
f 68/62/60 71/13/11 35/16/14 34/63/61
f 6/64/29 14/65/32 63/66/62 9/67/63
f 9/67/63 63/66/62 64/68/64 10/69/65
f 10/69/65 64/68/64 65/59/57 11/58/56
f 14/65/32 13/70/34 66/71/66 63/66/62
f 63/66/62 66/71/66 67/72/67 64/68/64
f 64/68/64 67/72/67 68/62/60 65/59/57
f 13/70/34 12/73/23 69/74/68 66/71/66
f 66/71/66 69/74/68 70/75/69 67/72/67
f 67/72/67 70/75/69 71/13/11 68/62/60
f 12/73/23 2/28/26 44/49/47 69/74/68
f 69/74/68 44/49/47 43/51/49 70/75/69
f 70/75/69 43/51/49 42/14/12 71/13/11
f 9/76/63 74/77/70 26/32/30 6/31/29
f 74/77/70 77/78/71 25/37/35 26/32/30
f 77/78/71 80/9/7 24/12/10 25/37/35
f 8/79/59 18/80/72 72/81/73 11/82/56
f 11/82/56 72/81/73 73/83/74 10/84/65
f 10/84/65 73/83/74 74/77/70 9/76/63
f 18/80/72 19/85/75 75/86/76 72/81/73
f 72/81/73 75/86/76 76/87/77 73/83/74
f 73/83/74 76/87/77 77/78/71 74/77/70
f 19/85/75 20/88/6 78/89/78 75/86/76
f 75/86/76 78/89/78 79/90/79 76/87/77
f 76/87/77 79/90/79 80/9/7 77/78/71
f 20/88/6 7/91/3 36/92/2 78/89/78
f 78/89/78 36/92/2 37/93/80 79/90/79
f 79/90/79 37/93/80 38/10/8 80/9/7
f 33/94/58 83/95/81 18/96/72 8/97/59
f 83/95/81 86/98/82 19/99/75 18/96/72
f 86/98/82 89/5/5 20/8/6 19/99/75
f 4/15/13 23/45/43 81/100/83 35/101/14
f 35/101/14 81/100/83 82/102/84 34/103/61
f 34/103/61 82/102/84 83/95/81 33/94/58
f 23/45/43 22/47/45 84/104/85 81/100/83
f 81/100/83 84/104/85 85/105/86 82/102/84
f 82/102/84 85/105/86 86/98/82 83/95/81
f 22/47/45 21/20/18 87/106/87 84/104/85
f 84/104/85 87/106/87 88/107/88 85/105/86
f 85/105/86 88/107/88 89/5/5 86/98/82
f 21/20/18 3/19/17 27/108/89 87/106/87
f 87/106/87 27/108/89 28/109/90 88/107/88
f 88/107/88 28/109/90 29/6/4 89/5/5
f 32/18/16 92/110/91 27/111/89 3/19/17
f 92/110/91 95/112/92 28/113/90 27/111/89
f 95/112/92 98/1/1 29/4/4 28/113/90
f 1/23/21 41/114/20 90/115/93 30/56/54
f 30/56/54 90/115/93 91/116/94 31/57/55
f 31/57/55 91/116/94 92/110/91 32/18/16
f 41/114/20 40/117/41 93/118/95 90/115/93
f 90/115/93 93/118/95 94/119/96 91/116/94
f 91/116/94 94/119/96 95/112/92 92/110/91
f 40/117/41 39/120/40 96/121/97 93/118/95
f 93/118/95 96/121/97 97/122/98 94/119/96
f 94/119/96 97/122/98 98/1/1 95/112/92
f 39/120/40 5/123/9 38/124/8 96/121/97
f 96/121/97 38/124/8 37/125/80 97/122/98
f 97/122/98 37/125/80 36/2/2 98/1/1
