# Blender 3.5.1
# www.blender.org
mtllib stageTest.mtl
o stage
v -9.817970 -0.330001 -105.520309
v -9.817970 0.330007 -105.520309
v -9.817970 -0.330001 -113.019951
v -9.817970 0.330007 -113.019951
v 9.817970 -0.330001 -105.520309
v 9.817970 0.330007 -105.520309
v 9.817970 -0.330001 -113.019951
v 9.817970 0.330007 -113.019951
v -3.000000 -0.330000 3.158964
v -3.000000 0.330000 3.158964
v -3.000000 -0.330000 -2.841036
v -3.000000 0.330000 -2.841036
v 3.000000 -0.330000 3.158964
v 3.000000 0.330000 3.158964
v 3.000000 -0.330000 -2.841036
v 3.000000 0.330000 -2.841036
v -19.957163 -0.330000 -2.841036
v -19.957163 0.330000 -2.841036
v 19.951433 -0.330000 -2.841036
v 19.951433 0.330000 -2.841036
v -19.980532 -0.330000 -69.740662
v -19.980532 0.330000 -69.740662
v 19.928064 -0.330000 -69.740662
v 19.928064 0.330000 -69.740662
v 3.002020 -0.330070 -1.712100
v 3.002020 4.852335 -1.712100
v 3.002020 -0.330070 -2.840258
v 3.002020 4.852335 -2.840258
v 19.961975 -0.330070 -1.712100
v 19.961975 4.852335 -1.712100
v 19.953142 -0.330070 -2.840258
v 19.953142 4.852335 -2.840258
v 21.999714 -0.330070 -1.712100
v 21.999714 4.852335 -1.712100
v 21.999714 -0.330070 -2.840258
v 21.999714 4.852335 -2.840258
v 19.928129 -0.330070 -69.740677
v 19.928129 4.852335 -69.740677
v 21.999714 -0.330070 -69.740906
v 21.999714 4.852335 -69.740906
v -9.999461 -0.330000 -82.357162
v -9.999461 0.330000 -82.357162
v 10.016135 -0.330000 -82.354202
v 10.016135 0.330000 -82.354202
v 10.016202 -0.330070 -82.354218
v 10.016202 4.852335 -82.354218
v 12.087786 -0.330070 -82.354446
v 12.087786 4.852335 -82.354446
v -9.999461 -0.330000 -89.840729
v -9.999461 0.330000 -89.840729
v 10.016135 -0.330000 -89.837769
v 10.016135 0.330000 -89.837769
v 10.016202 -0.330070 -89.837776
v 10.016202 4.852335 -89.837776
v 12.087786 -0.330070 -89.838005
v 12.087786 4.852335 -89.838005
v -8.999993 -0.330000 -93.841026
v -8.999993 0.330000 -93.841026
v 8.999946 -0.330000 -93.841026
v 8.999946 0.330000 -93.841026
v 9.000011 -0.330070 -93.841034
v 10.016135 0.330000 -89.837769
v 10.016202 -0.330070 -89.837776
v 8.999946 0.330000 -93.841026
v 9.000011 -0.330070 -93.841034
vn -1.0000 -0.0000 -0.0000
vn -0.0000 -0.0000 -1.0000
vn 1.0000 -0.0000 -0.0000
vn -0.0000 -0.0000 1.0000
vn -0.0000 -1.0000 -0.0000
vn -0.0000 1.0000 -0.0000
vn 1.0000 -0.0000 -0.0003
vn -1.0000 -0.0000 0.0003
vn -0.0000 0.0002 -1.0000
vn 0.7863 0.0001 -0.6179
vn -0.7843 -0.0000 -0.6204
vn -0.7863 -0.0000 0.6179
vn 0.7863 -0.0000 -0.6179
vn -0.0001 -0.0000 -1.0000
vn 1.0000 0.0001 -0.0000
vn 0.9693 -0.0000 -0.2460
vn -0.9702 -0.0000 -0.2424
vn -1.0000 0.0004 0.0004
vn -0.1120 -0.0000 -0.9937
vt 0.375000 0.000000
vt 0.375000 1.000000
vt 0.125000 0.750000
vt 0.625000 0.000000
vt 0.625000 1.000000
vt 0.875000 0.750000
vt 0.125000 0.500000
vt 0.375000 0.250000
vt 0.625000 0.250000
vt 0.875000 0.500000
vt 0.375000 0.750000
vt 0.625000 0.750000
vt 0.375000 0.500000
vt 0.625000 0.500000
vt 0.375000 0.000000
vt 0.375000 1.000000
vt 0.125000 0.750000
vt 0.625000 0.000000
vt 0.625000 1.000000
vt 0.875000 0.750000
vt 0.125000 0.500000
vt 0.375000 0.250000
vt 0.000000 0.000000
vt 0.625000 0.250000
vt 0.875000 0.500000
vt 0.375000 0.750000
vt 0.625000 0.750000
vt 0.375000 0.500000
vt 0.000000 0.000000
vt 0.625000 0.500000
vt 0.375000 0.250000
vt 0.000000 0.000000
vt 0.625000 0.250000
vt 0.000000 0.000000
vt 0.375000 0.500000
vt 0.000000 0.000000
vt 0.625000 0.500000
vt 0.000000 0.000000
vt 0.000000 0.000000
vt 0.375000 0.250000
vt 0.000000 0.000000
vt 0.625000 0.250000
vt 0.375000 0.500000
vt 0.000000 0.000000
vt 0.000000 0.000000
vt 0.625000 0.500000
vt 0.375000 0.000000
vt 0.375000 1.000000
vt 0.125000 0.750000
vt 0.625000 0.000000
vt 0.625000 1.000000
vt 0.875000 0.750000
vt 0.125000 0.500000
vt 0.375000 0.250000
vt 0.625000 0.250000
vt 0.875000 0.500000
vt 0.375000 0.750000
vt 0.625000 0.750000
vt 0.375000 0.500000
vt 0.625000 0.500000
vt 0.375000 0.750000
vt 0.625000 0.750000
vt 0.375000 0.500000
vt 0.625000 0.500000
vt 0.000000 0.000000
vt 0.375000 0.500000
vt 0.625000 0.500000
vt 0.375000 0.500000
vt 0.625000 0.500000
vt 0.000000 0.000000
vt 0.375000 0.250000
vt 0.625000 0.250000
vt 0.000000 0.000000
vt 0.000000 0.000000
vt 0.375000 0.500000
vt 0.000000 0.000000
vt 0.625000 0.500000
vt 0.000000 0.000000
vt 0.375000 0.500000
vt 0.625000 0.500000
vt 0.375000 0.500000
vt 0.625000 0.500000
vt 0.000000 0.000000
vt 0.375000 0.250000
vt 0.625000 0.250000
vt 0.000000 0.000000
vt 0.375000 0.500000
vt 0.000000 0.000000
vt 0.000000 0.000000
vt 0.625000 0.500000
vt 0.375000 0.500000
vt 0.000000 0.000000
vt 0.625000 0.500000
vt 0.375000 0.500000
vt 0.625000 0.500000
vt 0.000000 0.000000
vt 0.375000 0.250000
vt 0.000000 0.000000
vt 0.625000 0.250000
vt 0.000000 0.000000
vt 0.375000 0.500000
vt 0.625000 0.500000
vt 0.000000 0.000000
vt 0.000000 0.000000
vt 0.000000 0.000000
vt 0.625000 0.500000
vt 0.000000 0.000000
vt 0.625000 0.500000
vt 0.000000 0.000000
vt 0.000000 0.000000
s 0
f 2/4/1 3/8/1 1/1/1
f 4/9/2 7/13/2 3/8/2
f 8/14/3 5/11/3 7/13/3
f 6/12/4 1/2/4 5/11/4
f 7/13/5 1/3/5 3/7/5
f 4/10/6 6/12/6 8/14/6
f 10/18/1 11/22/1 9/15/1
f 12/24/2 15/28/2 11/22/2
f 16/30/3 13/26/3 15/28/3
f 14/27/4 9/16/4 13/26/4
f 15/28/5 9/17/5 11/21/5
f 12/25/6 14/27/6 16/30/6
f 18/33/4 11/22/4 12/24/4
f 15/28/4 20/37/4 16/30/4
f 19/35/7 24/46/7 20/37/7
f 22/42/8 17/31/8 18/33/8
f 24/45/6 42/73/6 22/41/6
f 11/23/5 21/39/5 23/44/5
f 26/50/1 27/54/1 25/47/1
f 20/37/9 28/56/9 32/60/9
f 29/57/4 34/62/4 30/58/4
f 30/58/4 25/48/4 29/57/4
f 31/59/5 25/49/5 27/53/5
f 32/60/6 26/52/6 30/58/6
f 36/64/3 33/61/3 35/63/3
f 29/57/5 35/63/5 33/61/5
f 30/58/6 36/64/6 32/60/6
f 31/59/5 39/68/5 35/63/5
f 45/78/10 24/45/10 37/65/10
f 35/63/3 40/69/3 36/64/3
f 32/60/6 40/69/6 38/67/6
f 20/37/8 38/67/8 24/45/8
f 18/34/6 24/45/6 22/41/6
f 51/87/3 44/77/3 43/75/3
f 46/80/1 52/89/1 44/76/1
f 37/66/5 47/81/5 39/68/5
f 42/72/11 21/40/11 22/42/11
f 41/70/5 23/44/5 21/39/5
f 38/67/6 48/82/6 46/80/6
f 24/45/12 46/80/12 44/76/12
f 43/75/13 24/46/13 23/43/13
f 39/68/13 48/82/13 40/69/13
f 49/83/5 59/100/5 51/88/5
f 54/93/14 55/94/14 53/91/14
f 45/78/15 52/89/15 44/76/15
f 47/81/3 56/95/3 48/82/3
f 52/89/6 42/73/6 44/76/6
f 47/81/5 53/91/5 55/94/5
f 41/70/5 51/88/5 43/74/5
f 50/85/1 41/71/1 42/72/1
f 48/82/6 54/93/6 46/80/6
f 58/99/2 59/101/2 57/97/2
f 59/101/16 52/90/16 51/87/16
f 52/89/6 63/107/6 62/105/6
f 60/103/6 50/86/6 52/89/6
f 58/99/17 49/84/17 50/85/17
f 60/102/6 62/106/6 64/108/6
f 53/92/6 65/110/6 63/107/6
f 61/104/6 64/109/6 65/110/6
f 2/4/1 4/9/1 3/8/1
f 4/9/2 8/14/2 7/13/2
f 8/14/3 6/12/3 5/11/3
f 6/12/4 2/5/4 1/2/4
f 7/13/5 5/11/5 1/3/5
f 4/10/6 2/6/6 6/12/6
f 10/18/1 12/24/1 11/22/1
f 12/24/2 16/30/2 15/28/2
f 16/30/3 14/27/3 13/26/3
f 14/27/4 10/19/4 9/16/4
f 15/28/5 13/26/5 9/17/5
f 12/25/6 10/20/6 14/27/6
f 18/33/4 17/31/4 11/22/4
f 15/28/4 19/35/4 20/37/4
f 19/35/7 23/43/7 24/46/7
f 22/42/8 21/40/8 17/31/8
f 24/45/6 44/76/6 42/73/6
f 23/44/5 19/36/5 15/29/5
f 11/23/5 17/32/5 21/39/5
f 23/44/5 15/29/5 11/23/5
f 26/50/1 28/55/1 27/54/1
f 20/37/9 16/30/9 28/56/9
f 29/57/4 33/61/4 34/62/4
f 30/58/4 26/51/4 25/48/4
f 31/59/5 29/57/5 25/49/5
f 32/60/6 28/56/6 26/52/6
f 36/64/3 34/62/3 33/61/3
f 29/57/5 31/59/5 35/63/5
f 30/58/6 34/62/6 36/64/6
f 31/59/5 37/66/5 39/68/5
f 45/78/10 44/76/10 24/45/10
f 35/63/3 39/68/3 40/69/3
f 32/60/6 36/64/6 40/69/6
f 20/37/18 32/60/18 38/67/18
f 18/34/6 20/38/6 24/45/6
f 51/87/3 52/90/3 44/77/3
f 46/80/1 54/93/1 52/89/1
f 37/66/5 45/79/5 47/81/5
f 42/72/11 41/71/11 21/40/11
f 41/70/5 43/74/5 23/44/5
f 38/67/6 40/69/6 48/82/6
f 24/45/12 38/67/12 46/80/12
f 43/75/13 44/77/13 24/46/13
f 39/68/13 47/81/13 48/82/13
f 49/83/5 57/96/5 59/100/5
f 53/91/19 52/89/19 54/93/19
f 54/93/14 56/95/14 55/94/14
f 45/78/15 53/92/15 52/89/15
f 47/81/3 55/94/3 56/95/3
f 52/89/6 50/86/6 42/73/6
f 47/81/5 45/79/5 53/91/5
f 41/70/5 49/83/5 51/88/5
f 50/85/1 49/84/1 41/71/1
f 48/82/6 56/95/6 54/93/6
f 58/99/2 60/102/2 59/101/2
f 59/101/16 60/102/16 52/90/16
f 52/89/6 53/92/6 63/107/6
f 60/103/6 58/98/6 50/86/6
f 58/99/17 57/97/17 49/84/17
f 60/102/6 52/90/6 62/106/6
f 53/92/6 61/104/6 65/110/6
f 61/104/6 60/103/6 64/109/6
