# Blender 3.5.1
# www.blender.org
mtllib stageTest.mtl
o stage
v -40.425018 -0.330001 -257.318665
v -40.425018 0.330007 -257.318665
v -40.425018 -0.330001 -320.124023
v -40.425018 0.330007 -320.124023
v 40.213432 -0.330001 -257.318665
v 40.213432 0.330007 -257.318665
v 40.213432 -0.330001 -320.124023
v 40.213432 0.330007 -320.124023
v -20.258167 -0.330000 35.190155
v -20.258167 0.330000 35.190155
v -20.258167 -0.330000 -3.000000
v -20.258167 0.330000 -3.000000
v 20.476562 -0.330000 35.190155
v 20.476562 0.330000 35.190155
v 20.476562 -0.330000 -3.000000
v 20.476562 0.330000 -3.000000
v -69.567810 -0.330000 -3.000000
v -69.567810 0.330000 -3.000000
v 69.393181 -0.330000 -3.000000
v 69.393181 0.330000 -3.000000
v -69.591187 -0.330000 -152.254639
v -69.591187 0.330000 -152.254639
v 69.369812 -0.330000 -152.254639
v 69.369812 0.330000 -152.254639
v 20.478582 -0.330070 -1.871063
v 20.478582 20.020042 -1.871063
v 20.478582 -0.330070 -2.999222
v 20.478582 20.020042 -2.999222
v 69.403725 -0.330070 -1.871063
v 69.403725 20.020042 -1.871063
v 69.394890 -0.330070 -2.999222
v 69.394890 20.020042 -2.999222
v 71.441467 -0.330070 -1.871063
v 71.441467 20.020042 -1.871063
v 71.441467 -0.330070 -2.999222
v 71.441467 20.020042 -2.999222
v 69.369881 -0.330070 -152.254639
v 69.369881 20.020042 -152.254639
v 71.441467 -0.330070 -152.254883
v 71.441467 20.020042 -152.254883
v -59.610115 -0.330000 -178.436523
v -59.610115 0.330000 -178.436523
v 59.457886 -0.330000 -178.433563
v 59.457886 0.330000 -178.433563
v 59.457954 -0.330070 -178.433594
v 59.457954 20.020042 -178.433594
v 61.529533 -0.330070 -178.433807
v 61.529533 20.020042 -178.433807
v -50.853931 -0.330000 -189.572327
v -50.853931 0.330000 -189.572327
v 51.003639 -0.330000 -189.569366
v 51.003639 0.330000 -189.569366
v 51.003708 -0.330070 -189.569366
v 51.003708 20.020042 -189.569366
v 53.075287 -0.330070 -189.569595
v 53.075287 20.020042 -189.569595
v -49.854462 -0.330000 -205.051025
v -49.854462 0.330000 -205.051025
v 49.987450 -0.330000 -205.051025
v 49.987450 0.330000 -205.051025
vn -1.0000 -0.0000 -0.0000
vn -0.0000 -0.0000 -1.0000
vn 1.0000 -0.0000 -0.0000
vn -0.0000 -0.0000 1.0000
vn -0.0000 -1.0000 -0.0000
vn -0.0000 1.0000 -0.0000
vn 1.0000 -0.0000 -0.0002
vn -1.0000 -0.0000 0.0002
vn -0.9352 -0.0001 0.3541
vn -0.7965 -0.0000 0.6047
vn -0.9344 -0.0000 -0.3562
vn -0.9352 -0.0000 0.3541
vn 0.9352 -0.0000 -0.3541
vn -0.0001 -0.0000 -1.0000
vn -0.7965 -0.0001 0.6047
vn 0.7965 -0.0000 -0.6047
vn -0.7861 -0.0000 -0.6181
vn 0.9979 -0.0000 -0.0655
vn -0.9979 -0.0000 -0.0644
vn -1.0000 0.0001 0.0002
vt 0.642017 0.620584
vt 0.335532 0.487913
vt 0.640423 0.620584
vt 0.487181 0.682621
vt 0.487181 0.487913
vt 0.642021 0.487913
vt 0.640427 0.487913
vt 0.643614 0.487913
vt 0.638829 0.682621
vt 0.642021 0.714897
vt 0.645208 0.487913
vt 0.335532 0.682621
vt 0.643615 0.487913
vt 0.640427 0.714897
vt 0.487181 0.487913
vt 0.645208 0.639285
vt 0.642021 0.682621
vt 0.487181 0.682621
vt 0.638829 0.487913
vt 0.643614 0.682621
vt 0.643615 0.639285
vt 0.844853 0.952358
vt 0.216485 0.000015
vt 0.843259 0.952358
vt 0.000000 0.678465
vt 0.646802 0.586270
vt 0.844854 0.871684
vt 0.216470 0.092229
vt 0.843260 0.871684
vt 0.645208 0.586270
vt 0.092213 0.678465
vt 0.844856 1.000000
vt 0.648395 0.487913
vt 0.118128 0.000000
vt 0.646802 0.487913
vt 0.843262 1.000000
vt 0.000000 0.580108
vt 0.648395 0.579958
vt 0.646802 0.487913
vt 0.193896 0.637319
vt 0.118113 0.092213
vt 0.092213 0.580108
vt 0.195489 0.637319
vt 0.645208 0.487913
vt 0.646802 0.579958
vt 0.139756 0.698225
vt 0.844850 0.814013
vt 0.335532 0.092247
vt 0.843257 0.814013
vt 0.671065 0.487861
vt 0.193896 0.580108
vt 0.844849 0.000000
vt 0.000000 0.092195
vt 0.843256 0.000000
vt 0.195489 0.580108
vt 0.139756 0.580112
vt 0.795714 0.455069
vt 0.335532 0.487913
vt 0.335532 0.452634
vt 0.844855 0.498698
vt 0.671065 0.127474
vt 0.843261 0.498698
vt 0.794119 0.770384
vt 0.844849 0.359732
vt 0.000000 0.452582
vt 0.843256 0.359732
vt 0.335532 0.127526
vt 0.795712 0.770384
vt 0.188893 0.582494
vt 0.671065 0.453213
vt 0.139756 0.582491
vt 0.794119 0.906426
vt 0.671065 0.450489
vt 0.188893 0.580111
vt 0.139757 0.580108
vt 0.092213 0.698220
vt 0.794119 0.903702
vt 0.188893 0.639715
vt 0.789198 0.453213
vt 0.139757 0.639712
vt 0.675985 0.906426
vt 0.789177 0.450489
vt 0.092213 0.580108
vt 0.676006 0.903702
vt 0.843257 0.455065
vt 0.794119 0.453213
vt 0.188893 0.642098
vt 0.843256 0.000000
vt 0.139757 0.642096
vt 0.794119 0.000000
vt 0.671065 0.906426
vt 0.794119 0.450489
vt 0.843256 0.002719
vt 0.794119 0.002719
vt 0.671065 0.903702
vt 0.794119 0.770384
vt 0.789117 0.090100
vt 0.676067 0.543313
vt 0.843256 0.770383
vt 0.794119 0.090099
vt 0.843256 0.362450
vt 0.794119 0.362450
vt 0.671065 0.543312
vt 0.844856 0.455065
vt 0.311422 0.515849
vt 0.198677 0.580108
vt 0.200270 0.580108
vt 0.646955 0.064259
vt 0.843262 0.455065
vt 0.794119 0.837278
vt 0.023923 0.515797
vt 0.795713 0.837278
vt 0.359456 0.064311
vt 0.794119 0.837278
vt 0.765183 0.026889
vt 0.843256 0.837277
vt 0.700000 0.480102
vt 0.770185 0.026888
vt 0.843256 0.426992
vt 0.794119 0.426992
vt 0.694998 0.480101
vt 0.290276 0.542734
vt 0.198677 0.601251
vt 0.197083 0.580108
vt 0.198677 0.580108
vt 0.200270 0.601251
vt 0.625808 0.037374
vt 0.195489 0.617570
vt 0.794120 0.870689
vt 0.044332 0.542688
vt 0.193896 0.581702
vt 0.795714 0.870689
vt 0.379865 0.037420
vt 0.197083 0.617570
vt 0.193895 0.580108
vt 0.794120 0.870689
vt 0.744770 0.000001
vt 0.720413 0.453213
vt 0.843257 0.870688
vt 0.193895 0.629245
vt 0.188893 0.580108
vt 0.843256 0.455065
vt 0.749772 0.000000
vt 0.188893 0.629245
vt 0.794119 0.455065
vt 0.715411 0.453213
vt 0.638829 0.487913
vt 0.287856 0.580108
vt 0.197083 0.611636
vt 0.640423 0.487913
vt 0.623389 0.000000
vt 0.198677 0.611636
vt 0.046780 0.580070
vt 0.638829 0.728989
vt 0.195489 0.580108
vt 0.640423 0.728989
vt 0.197083 0.580108
vt 0.382313 0.000038
s 0
usemtl マテリアル
f 2/3/1 3/6/1 1/1/1
f 4/8/2 7/17/2 3/6/2
f 8/21/3 5/11/3 7/16/3
f 6/14/4 1/1/4 5/10/4
f 7/18/5 1/2/5 3/5/5
f 4/9/6 6/15/6 8/19/6
f 10/24/1 11/27/1 9/22/1
f 12/30/2 15/39/2 11/26/2
f 16/45/3 13/33/3 15/38/3
f 14/36/4 9/22/4 13/32/4
f 15/41/5 9/23/5 11/28/5
f 12/31/6 14/37/6 16/42/6
f 18/49/4 11/27/4 12/29/4
f 15/40/4 20/55/4 16/43/4
f 19/52/7 24/66/7 20/54/7
f 22/62/8 17/47/8 18/49/8
f 24/67/6 42/108/6 22/61/6
f 11/28/5 21/59/5 23/65/5
f 26/71/1 27/74/1 25/69/1
f 20/56/2 28/76/2 32/83/2
f 29/78/4 34/89/4 30/80/4
f 30/80/4 25/69/4 29/78/4
f 31/82/5 25/70/5 27/73/5
f 32/84/6 26/72/6 30/81/6
f 36/94/3 33/88/3 35/93/3
f 29/79/5 35/92/5 33/86/5
f 30/81/6 36/95/6 32/84/6
f 31/82/5 39/100/5 35/92/5
f 24/68/9 45/114/9 37/96/9
f 35/93/3 40/102/3 36/94/3
f 32/84/6 40/103/6 38/98/6
f 20/57/8 38/99/8 24/68/8
f 18/50/6 24/67/6 22/61/6
f 44/112/10 51/129/10 43/110/10
f 44/112/10 54/139/10 52/132/10
f 37/97/5 47/118/5 39/100/5
f 42/109/11 21/60/11 22/62/11
f 41/105/5 23/65/5 21/59/5
f 38/98/6 48/121/6 46/117/6
f 24/68/12 46/116/12 44/112/12
f 24/68/12 43/110/12 23/63/12
f 39/101/13 48/120/13 40/102/13
f 49/122/5 59/153/5 51/130/5
f 54/140/14 55/141/14 53/135/14
f 44/112/15 53/136/15 45/114/15
f 47/119/16 56/145/16 48/120/16
f 44/113/6 50/127/6 42/108/6
f 45/115/5 55/143/5 47/118/5
f 49/122/5 43/111/5 41/105/5
f 50/126/17 41/106/17 42/107/17
f 46/117/6 56/146/6 54/138/6
f 58/150/2 59/154/2 57/147/2
f 59/155/18 52/134/18 51/128/18
f 60/158/6 50/127/6 52/133/6
f 58/152/19 49/124/19 50/125/19
f 2/3/1 4/7/1 3/6/1
f 4/8/2 8/20/2 7/17/2
f 8/21/3 6/13/3 5/11/3
f 6/14/4 2/3/4 1/1/4
f 7/18/5 5/12/5 1/2/5
f 4/9/6 2/4/6 6/15/6
f 10/24/1 12/29/1 11/27/1
f 12/30/2 16/44/2 15/39/2
f 16/45/3 14/35/3 13/33/3
f 14/36/4 10/24/4 9/22/4
f 15/41/5 13/34/5 9/23/5
f 12/31/6 10/25/6 14/37/6
f 18/49/4 17/47/4 11/27/4
f 15/40/4 19/51/4 20/55/4
f 19/52/7 23/64/7 24/66/7
f 22/62/8 21/60/8 17/47/8
f 24/67/6 44/113/6 42/108/6
f 23/65/5 19/53/5 15/41/5
f 11/28/5 17/48/5 21/59/5
f 23/65/5 15/41/5 11/28/5
f 26/71/1 28/75/1 27/74/1
f 20/56/2 16/46/2 28/76/2
f 29/78/4 33/87/4 34/89/4
f 30/80/4 26/71/4 25/69/4
f 31/82/5 29/79/5 25/70/5
f 32/84/6 28/77/6 26/72/6
f 36/94/3 34/90/3 33/88/3
f 29/79/5 31/82/5 35/92/5
f 30/81/6 34/91/6 36/95/6
f 31/82/5 37/97/5 39/100/5
f 24/68/9 44/112/9 45/114/9
f 35/93/3 39/101/3 40/102/3
f 32/84/6 36/95/6 40/103/6
f 20/57/20 32/85/20 38/99/20
f 18/50/6 20/58/6 24/67/6
f 44/112/10 52/132/10 51/129/10
f 44/112/10 46/116/10 54/139/10
f 37/97/5 45/115/5 47/118/5
f 42/109/11 41/104/11 21/60/11
f 41/105/5 43/111/5 23/65/5
f 38/98/6 40/103/6 48/121/6
f 24/68/12 38/99/12 46/116/12
f 24/68/12 44/112/12 43/110/12
f 39/101/13 47/119/13 48/120/13
f 49/122/5 57/148/5 59/153/5
f 53/135/2 52/131/2 54/140/2
f 54/140/14 56/144/14 55/141/14
f 44/112/15 52/132/15 53/136/15
f 47/119/16 55/142/16 56/145/16
f 44/113/6 52/133/6 50/127/6
f 45/115/5 53/137/5 55/143/5
f 49/122/5 51/130/5 43/111/5
f 50/126/17 49/123/17 41/106/17
f 46/117/6 48/121/6 56/146/6
f 58/150/2 60/156/2 59/154/2
f 59/155/18 60/157/18 52/134/18
f 60/158/6 58/151/6 50/127/6
f 58/152/19 57/149/19 49/124/19
