# Blender v3.1.2 OBJ File: ''
# www.blender.org
mtllib BlockV3.mtl
o 立方体_立方体.001
v -0.972541 -0.913186 0.897413
v -1.184330 0.951073 0.954854
v -1.003079 -1.186441 -0.913292
v -1.163142 0.998708 -1.192592
v 0.951976 -0.834852 1.192427
v 1.347924 0.956844 0.957247
v 1.233166 -0.762011 -0.745423
v 0.793619 0.904056 -0.907896
v -1.070191 -1.184432 -0.526995
v -1.053041 -1.066033 -0.035180
v -1.020562 -0.979611 0.521284
v -1.025359 -0.571359 0.991993
v -1.172964 -0.040216 0.986183
v -1.268864 0.547437 1.002362
v -1.331654 1.028144 0.407492
v -1.444293 1.169284 -0.264977
v -1.379845 1.119342 -0.842167
v -1.238282 0.533679 -1.108198
v -1.202643 -0.108743 -1.028078
v -1.082935 -0.776203 -0.910798
v 0.713737 -0.879138 -0.799250
v -0.132376 -1.025221 -0.930282
v -0.652269 -1.138090 -0.938672
v -0.755189 1.008195 -1.242501
v -0.259200 0.984636 -1.258496
v 0.351344 0.943258 -1.094363
v 0.845347 0.577861 -0.885456
v 1.191483 0.076622 -0.722406
v 1.231146 -0.370362 -0.714233
v 1.062544 -0.840808 0.838173
v 1.284240 -0.804437 0.212185
v 1.207465 -0.808175 -0.395002
v 1.002410 0.934057 -0.496656
v 1.257971 0.951114 0.002998
v 1.440764 1.069196 0.594233
v 1.188179 0.511112 1.025471
v 1.036221 -0.124235 1.274770
v 0.973644 -0.592960 1.280574
v -0.520130 -0.944545 0.986704
v -0.017591 -0.978627 0.969822
v 0.562465 -0.928326 1.031040
v 0.901990 1.129596 1.138198
v 0.054604 1.147189 1.111318
v -0.561858 1.142508 1.050079
v 0.498342 1.027889 -0.589284
v 0.704365 1.037142 -0.002251
v 0.873751 1.181821 0.678358
v -0.259121 1.173968 -0.760289
v -0.209137 1.146763 -0.144327
v -0.125338 1.110719 0.532620
v -0.890257 1.258337 -0.843273
v -0.927271 1.278426 -0.244253
v -0.818231 1.167733 0.423355
v -0.637420 -1.159780 -0.541908
v -0.554479 -1.060153 -0.002220
v -0.484222 -0.986146 0.546514
v -0.150473 -1.085562 -0.586036
v -0.042498 -1.022228 -0.030301
v 0.038988 -0.999528 0.519319
v 0.498824 -0.964823 -0.499398
v 0.565519 -0.942721 0.075297
v 0.604822 -0.965710 0.667815
v 0.587352 -0.666702 1.352428
v 0.066364 -0.688057 1.342718
v -0.430403 -0.643508 1.290954
v 0.653036 -0.107277 1.431118
v 0.111952 -0.091287 1.398640
v -0.392973 -0.104684 1.337027
v 0.797619 0.689945 1.253227
v 0.092528 0.732046 1.243150
v -0.467045 0.650876 1.231052
v 1.353658 -0.379987 -0.335761
v 1.408847 -0.472883 0.233446
v 1.123811 -0.577452 0.822361
v 1.360427 0.054633 -0.309820
v 1.364516 -0.079958 0.272933
v 1.156752 -0.155674 0.820375
v 1.110983 0.566721 -0.478494
v 1.247780 0.514921 0.024814
v 1.265310 0.509271 0.564795
v -0.685930 -0.763417 -0.980237
v -0.151554 -0.631528 -0.982397
v 0.752445 -0.477820 -0.843319
v -0.691123 -0.207092 -1.025436
v -0.152121 -0.117572 -1.061127
v 0.700564 0.013697 -0.924357
v -0.707947 0.443782 -1.119754
v -0.256635 0.509733 -1.218554
v 0.360619 0.589301 -1.112817
v -1.234798 -0.620354 0.492950
v -1.262936 -0.638776 -0.038558
v -1.241474 -0.742949 -0.495179
v -1.552758 0.018856 0.373816
v -1.689287 0.084009 -0.222682
v -1.562809 -0.029592 -0.700510
v -1.601254 0.647617 0.369784
v -1.775648 0.741824 -0.313224
v -1.651137 0.621462 -0.828109
vt 0.562500 0.187500
vt 0.625000 0.187500
vt 0.625000 0.250000
vt 0.562500 0.250000
vt 0.562500 0.437500
vt 0.625000 0.437500
vt 0.625000 0.500000
vt 0.562500 0.500000
vt 0.562500 0.687500
vt 0.625000 0.687500
vt 0.625000 0.750000
vt 0.562500 0.750000
vt 0.562500 0.937500
vt 0.625000 0.937500
vt 0.625000 1.000000
vt 0.562500 1.000000
vt 0.312500 0.687500
vt 0.375000 0.687500
vt 0.375000 0.750000
vt 0.312500 0.750000
vt 0.812500 0.687500
vt 0.875000 0.687500
vt 0.875000 0.750000
vt 0.812500 0.750000
vt 0.687500 0.687500
vt 0.687500 0.750000
vt 0.750000 0.687500
vt 0.750000 0.750000
vt 0.687500 0.500000
vt 0.687500 0.562500
vt 0.625000 0.562500
vt 0.687500 0.625000
vt 0.625000 0.625000
vt 0.750000 0.500000
vt 0.750000 0.562500
vt 0.750000 0.625000
vt 0.812500 0.500000
vt 0.812500 0.562500
vt 0.812500 0.625000
vt 0.875000 0.500000
vt 0.875000 0.562500
vt 0.875000 0.625000
vt 0.125000 0.687500
vt 0.187500 0.687500
vt 0.187500 0.750000
vt 0.125000 0.750000
vt 0.250000 0.687500
vt 0.250000 0.750000
vt 0.125000 0.500000
vt 0.187500 0.500000
vt 0.187500 0.562500
vt 0.125000 0.562500
vt 0.187500 0.625000
vt 0.125000 0.625000
vt 0.250000 0.500000
vt 0.250000 0.562500
vt 0.250000 0.625000
vt 0.312500 0.500000
vt 0.312500 0.562500
vt 0.312500 0.625000
vt 0.375000 0.500000
vt 0.375000 0.562500
vt 0.375000 0.625000
vt 0.375000 0.937500
vt 0.437500 0.937500
vt 0.437500 1.000000
vt 0.375000 1.000000
vt 0.500000 0.937500
vt 0.500000 1.000000
vt 0.437500 0.750000
vt 0.437500 0.812500
vt 0.375000 0.812500
vt 0.437500 0.875000
vt 0.375000 0.875000
vt 0.500000 0.750000
vt 0.500000 0.812500
vt 0.500000 0.875000
vt 0.562500 0.812500
vt 0.562500 0.875000
vt 0.625000 0.812500
vt 0.625000 0.875000
vt 0.437500 0.687500
vt 0.500000 0.687500
vt 0.437500 0.500000
vt 0.437500 0.562500
vt 0.437500 0.625000
vt 0.500000 0.500000
vt 0.500000 0.562500
vt 0.500000 0.625000
vt 0.562500 0.562500
vt 0.562500 0.625000
vt 0.375000 0.437500
vt 0.437500 0.437500
vt 0.500000 0.437500
vt 0.375000 0.250000
vt 0.437500 0.250000
vt 0.437500 0.312500
vt 0.375000 0.312500
vt 0.437500 0.375000
vt 0.375000 0.375000
vt 0.500000 0.250000
vt 0.500000 0.312500
vt 0.500000 0.375000
vt 0.562500 0.312500
vt 0.562500 0.375000
vt 0.625000 0.312500
vt 0.625000 0.375000
vt 0.375000 0.187500
vt 0.437500 0.187500
vt 0.500000 0.187500
vt 0.375000 0.000000
vt 0.437500 0.000000
vt 0.437500 0.062500
vt 0.375000 0.062500
vt 0.437500 0.125000
vt 0.375000 0.125000
vt 0.500000 0.000000
vt 0.500000 0.062500
vt 0.500000 0.125000
vt 0.562500 0.000000
vt 0.562500 0.062500
vt 0.562500 0.125000
vt 0.625000 0.000000
vt 0.625000 0.062500
vt 0.625000 0.125000
vn -0.8585 0.0959 -0.5038
vn -0.5627 0.7097 -0.4240
vn -0.3424 0.3851 -0.8570
vn -0.4000 -0.0902 -0.9120
vn 0.2880 -0.0714 -0.9550
vn 0.3136 0.5765 -0.7545
vn 0.5375 0.5695 -0.6219
vn 0.6323 0.0993 -0.7683
vn 0.9879 -0.1223 0.0951
vn 0.8408 0.5408 -0.0241
vn 0.7973 0.3183 0.5128
vn 0.8079 -0.0547 0.5867
vn -0.1919 0.1836 0.9641
vn -0.1511 0.7935 0.5894
vn -0.5222 0.6025 0.6036
vn -0.6562 0.1258 0.7440
vn 0.1505 -0.9879 0.0368
vn 0.6593 -0.7218 0.2106
vn 0.4957 -0.7000 0.5141
vn 0.0937 -0.9205 0.3794
vn -0.1036 0.9859 0.1317
vn -0.5901 0.7529 0.2913
vn 0.1236 0.9922 -0.0184
vn 0.2350 0.7041 0.6701
vn 0.0426 0.9990 -0.0107
vn -0.0327 0.8000 0.5991
vn 0.1789 0.9744 -0.1358
vn 0.6483 0.6805 -0.3414
vn 0.1238 0.9860 -0.1119
vn 0.7667 0.5707 -0.2939
vn 0.1215 0.4962 -0.8597
vn 0.1598 0.9697 -0.1849
vn 0.1202 0.9927 0.0046
vn -0.0575 0.4451 -0.8936
vn -0.0449 0.9638 -0.2627
vn -0.0625 0.9961 0.0615
vn -0.5736 0.8176 0.0502
vn -0.5381 -0.8193 0.1979
vn -0.0194 -0.9944 0.1042
vn -0.1598 -0.8590 0.4865
vn -0.5137 -0.7161 0.4726
vn 0.0415 -0.9979 0.0489
vn -0.0181 -0.9320 0.3621
vn -0.4264 -0.6806 -0.5958
vn 0.0574 -0.7121 -0.6997
vn 0.1028 -0.9932 0.0549
vn -0.5590 -0.8292 -0.0038
vn 0.0423 -0.9895 0.1382
vn -0.5321 -0.8318 0.1579
vn 0.1766 -0.6718 -0.7194
vn 0.1621 -0.9865 -0.0245
vn 0.1006 -0.9928 0.0647
vn 0.2517 -0.6774 -0.6912
vn 0.1900 -0.9803 -0.0544
vn 0.1663 -0.9861 0.0035
vn 0.6276 -0.5002 -0.5965
vn 0.6632 -0.7407 -0.1077
vn 0.7083 -0.7030 0.0644
vn -0.2460 -0.3731 0.8946
vn -0.6552 -0.3061 0.6907
vn -0.2387 0.0052 0.9711
vn -0.6694 -0.1262 0.7321
vn 0.6342 -0.2875 0.7178
vn 0.0704 -0.4380 0.8962
vn -0.0575 -0.4733 0.8790
vn 0.7285 -0.0262 0.6845
vn 0.1699 0.0400 0.9847
vn -0.0640 0.0449 0.9969
vn 0.2259 0.1803 0.9573
vn -0.0493 0.2425 0.9689
vn 0.9305 -0.1565 0.3311
vn 0.9594 -0.0481 0.2781
vn 0.7264 -0.0581 -0.6848
vn 0.9815 -0.0936 -0.1672
vn 0.9797 -0.1439 0.1398
vn 0.7240 0.1179 -0.6796
vn 0.9614 0.1856 -0.2033
vn 0.9871 0.0828 0.1374
vn 0.9001 0.2319 -0.3689
vn 0.9893 0.0877 -0.1168
vn 0.2160 -0.0843 -0.9728
vn 0.2925 -0.1020 -0.9508
vn -0.5768 -0.2491 -0.7780
vn -0.0461 -0.1102 -0.9928
vn 0.0902 -0.1252 -0.9880
vn -0.4322 -0.2320 -0.8714
vn -0.0572 -0.1461 -0.9876
vn 0.0686 -0.1700 -0.9831
vn -0.0801 -0.1715 -0.9819
vn 0.0406 -0.1509 -0.9877
vn -0.9054 -0.3939 -0.1584
vn -0.8642 -0.3110 -0.3956
vn -0.8830 -0.3968 0.2507
vn -0.8894 -0.4523 0.0667
vn -0.9176 -0.2512 0.3082
vn -0.9609 -0.2758 0.0247
vn -0.9156 0.1982 0.3499
vn -0.9665 0.2566 -0.0021
usemtl マテリアル.001
s 1
f 98/1/1 17/2/2 4/3/3 18/4/4
f 89/5/5 26/6/6 8/7/7 27/8/8
f 80/9/9 35/10/10 6/11/11 36/12/12
f 71/13/13 44/14/14 2/15/15 14/16/16
f 62/17/17 30/18/18 5/19/19 41/20/20
f 53/21/21 15/22/22 2/23/15 44/24/14
f 35/10/10 47/25/23 42/26/24 6/11/11
f 47/25/23 50/27/25 43/28/26 42/26/24
f 50/27/25 53/21/21 44/24/14 43/28/26
f 8/7/7 26/29/6 45/30/27 33/31/28
f 33/31/28 45/30/27 46/32/29 34/33/30
f 34/33/30 46/32/29 47/25/23 35/10/10
f 26/29/6 25/34/31 48/35/32 45/30/27
f 45/30/27 48/35/32 49/36/33 46/32/29
f 46/32/29 49/36/33 50/27/25 47/25/23
f 25/34/31 24/37/34 51/38/35 48/35/32
f 48/35/32 51/38/35 52/39/36 49/36/33
f 49/36/33 52/39/36 53/21/21 50/27/25
f 24/37/34 4/40/3 17/41/2 51/38/35
f 51/38/35 17/41/2 16/42/37 52/39/36
f 52/39/36 16/42/37 15/22/22 53/21/21
f 11/43/38 56/44/39 39/45/40 1/46/41
f 56/44/39 59/47/42 40/48/43 39/45/40
f 59/47/42 62/17/17 41/20/20 40/48/43
f 3/49/44 23/50/45 54/51/46 9/52/47
f 9/52/47 54/51/46 55/53/48 10/54/49
f 10/54/49 55/53/48 56/44/39 11/43/38
f 23/50/45 22/55/50 57/56/51 54/51/46
f 54/51/46 57/56/51 58/57/52 55/53/48
f 55/53/48 58/57/52 59/47/42 56/44/39
f 22/55/50 21/58/53 60/59/54 57/56/51
f 57/56/51 60/59/54 61/60/55 58/57/52
f 58/57/52 61/60/55 62/17/17 59/47/42
f 21/58/53 7/61/56 32/62/57 60/59/54
f 60/59/54 32/62/57 31/63/58 61/60/55
f 61/60/55 31/63/58 30/18/18 62/17/17
f 39/64/40 65/65/59 12/66/60 1/67/41
f 65/65/59 68/68/61 13/69/62 12/66/60
f 68/68/61 71/13/13 14/16/16 13/69/62
f 5/19/19 38/70/63 63/71/64 41/72/20
f 41/72/20 63/71/64 64/73/65 40/74/43
f 40/74/43 64/73/65 65/65/59 39/64/40
f 38/70/63 37/75/66 66/76/67 63/71/64
f 63/71/64 66/76/67 67/77/68 64/73/65
f 64/73/65 67/77/68 68/68/61 65/65/59
f 37/75/66 36/12/12 69/78/69 66/76/67
f 66/76/67 69/78/69 70/79/70 67/77/68
f 67/77/68 70/79/70 71/13/13 68/68/61
f 36/12/12 6/11/11 42/80/24 69/78/69
f 69/78/69 42/80/24 43/81/26 70/79/70
f 70/79/70 43/81/26 44/14/14 71/13/13
f 30/18/18 74/82/71 38/70/63 5/19/19
f 74/82/71 77/83/72 37/75/66 38/70/63
f 77/83/72 80/9/9 36/12/12 37/75/66
f 7/61/56 29/84/73 72/85/74 32/62/57
f 32/62/57 72/85/74 73/86/75 31/63/58
f 31/63/58 73/86/75 74/82/71 30/18/18
f 29/84/73 28/87/76 75/88/77 72/85/74
f 72/85/74 75/88/77 76/89/78 73/86/75
f 73/86/75 76/89/78 77/83/72 74/82/71
f 28/87/76 27/8/8 78/90/79 75/88/77
f 75/88/77 78/90/79 79/91/80 76/89/78
f 76/89/78 79/91/80 80/9/9 77/83/72
f 27/8/8 8/7/7 33/31/28 78/90/79
f 78/90/79 33/31/28 34/33/30 79/91/80
f 79/91/80 34/33/30 35/10/10 80/9/9
f 21/92/53 83/93/81 29/84/73 7/61/56
f 83/93/81 86/94/82 28/87/76 29/84/73
f 86/94/82 89/5/5 27/8/8 28/87/76
f 3/95/44 20/96/83 81/97/84 23/98/45
f 23/98/45 81/97/84 82/99/85 22/100/50
f 22/100/50 82/99/85 83/93/81 21/92/53
f 20/96/83 19/101/86 84/102/87 81/97/84
f 81/97/84 84/102/87 85/103/88 82/99/85
f 82/99/85 85/103/88 86/94/82 83/93/81
f 19/101/86 18/4/4 87/104/89 84/102/87
f 84/102/87 87/104/89 88/105/90 85/103/88
f 85/103/88 88/105/90 89/5/5 86/94/82
f 18/4/4 4/3/3 24/106/34 87/104/89
f 87/104/89 24/106/34 25/107/31 88/105/90
f 88/105/90 25/107/31 26/6/6 89/5/5
f 9/108/47 92/109/91 20/96/83 3/95/44
f 92/109/91 95/110/92 19/101/86 20/96/83
f 95/110/92 98/1/1 18/4/4 19/101/86
f 1/111/41 12/112/60 90/113/93 11/114/38
f 11/114/38 90/113/93 91/115/94 10/116/49
f 10/116/49 91/115/94 92/109/91 9/108/47
f 12/112/60 13/117/62 93/118/95 90/113/93
f 90/113/93 93/118/95 94/119/96 91/115/94
f 91/115/94 94/119/96 95/110/92 92/109/91
f 13/117/62 14/120/16 96/121/97 93/118/95
f 93/118/95 96/121/97 97/122/98 94/119/96
f 94/119/96 97/122/98 98/1/1 95/110/92
f 14/120/16 2/123/15 15/124/22 96/121/97
f 96/121/97 15/124/22 16/125/37 97/122/98
f 97/122/98 16/125/37 17/2/2 98/1/1
