# Blender 3.5.1
# www.blender.org
mtllib stage2Srop.mtl
o stage2Srop
v 0.965069 13.786495 214.499664
v 0.965069 15.786496 214.499664
v 0.965069 13.786495 217.383423
v 0.965069 15.786496 217.383423
v -2.065926 13.786495 214.499664
v -2.065926 15.786496 214.499664
v -2.065926 13.786495 217.383423
v -2.065926 15.786496 217.383423
v 0.965069 403.966705 592.068298
v 0.965069 405.966705 592.068298
v -2.065926 403.966705 592.068298
v -2.065926 405.966705 592.068298
vn 1.0000 -0.0000 -0.0000
vn -1.0000 -0.0000 -0.0000
vn -0.0000 -0.0000 -1.0000
vn -0.0000 -1.0000 -0.0000
vn -0.0000 1.0000 -0.0000
vn -0.0000 -0.0000 1.0000
vn -0.0000 -0.6926 0.7213
vn -0.0000 0.6926 -0.7213
vt 0.375000 0.000000
vt 0.375000 1.000000
vt 0.125000 0.750000
vt 0.625000 0.000000
vt 0.625000 1.000000
vt 0.875000 0.750000
vt 0.375000 0.250000
vt 0.125000 0.500000
vt 0.875000 0.500000
vt 0.625000 0.250000
vt 0.375000 0.750000
vt 0.625000 0.750000
vt 0.375000 0.500000
vt 0.625000 0.500000
vt 0.125000 0.500000
vt 0.375000 0.250000
vt 0.875000 0.500000
vt 0.625000 0.250000
vt 0.375000 0.500000
vt 0.625000 0.500000
s 0
f 2/4/1 3/7/1 1/1/1
f 8/14/2 11/19/2 12/20/2
f 8/14/2 5/11/2 7/13/2
f 6/12/3 1/2/3 5/11/3
f 7/13/4 1/3/4 3/8/4
f 4/9/5 6/12/5 8/14/5
f 10/18/6 11/19/6 9/16/6
f 3/8/7 11/19/7 7/13/7
f 8/14/8 10/17/8 4/9/8
f 4/10/1 9/16/1 3/7/1
f 2/4/1 4/10/1 3/7/1
f 8/14/2 7/13/2 11/19/2
f 8/14/2 6/12/2 5/11/2
f 6/12/3 2/5/3 1/2/3
f 7/13/4 5/11/4 1/3/4
f 4/9/5 2/6/5 6/12/5
f 10/18/6 12/20/6 11/19/6
f 3/8/7 9/15/7 11/19/7
f 8/14/8 12/20/8 10/17/8
f 4/10/1 10/18/1 9/16/1
