# Blender 3.5.1
# www.blender.org
mtllib srop.mtl
o surop.001
v -0.400000 0.619420 4.012606
v -0.400000 1.219420 4.012606
v -0.400000 0.619420 2.012606
v -0.400000 1.219420 2.012606
v 0.400000 0.619420 4.012606
v 0.400000 1.219420 4.012606
v 0.400000 0.619420 2.012606
v 0.400000 1.219420 2.012606
v -0.400000 0.115489 5.718660
v -0.400000 0.715489 5.718660
v 0.400000 0.115489 5.718660
v 0.400000 0.715489 5.718660
v -0.400000 -0.367442 6.432760
v -0.400000 0.232558 6.432760
v 0.400000 -0.367442 6.432760
v 0.400000 0.232558 6.432760
v -0.400000 -55.463326 83.993965
v -0.400000 -54.863327 83.993965
v 0.400000 -55.463326 83.993965
v 0.400000 -54.863327 83.993965
vn -1.0000 -0.0000 -0.0000
vn -0.0000 -0.0000 -1.0000
vn 1.0000 -0.0000 -0.0000
vn -0.0000 0.9590 0.2833
vn -0.0000 -1.0000 -0.0000
vn -0.0000 1.0000 -0.0000
vn -0.0000 0.8284 0.5602
vn -0.0000 -0.9590 -0.2833
vn -0.0000 -0.8152 -0.5791
vn -0.0000 -0.8284 -0.5602
vn -0.0000 -0.0000 1.0000
vn -0.0000 0.8152 0.5791
vt 0.125000 0.750000
vt 0.375000 0.000000
vt 0.625000 0.000000
vt 0.875000 0.750000
vt 0.125000 0.500000
vt 0.375000 0.250000
vt 0.625000 0.250000
vt 0.875000 0.500000
vt 0.375000 0.750000
vt 0.625000 0.750000
vt 0.375000 0.500000
vt 0.625000 0.500000
vt 0.125000 0.750000
vt 0.375000 0.000000
vt 0.875000 0.750000
vt 0.625000 0.000000
vt 0.375000 0.750000
vt 0.625000 0.750000
vt 0.125000 0.750000
vt 0.375000 0.000000
vt 0.625000 0.000000
vt 0.875000 0.750000
vt 0.375000 0.750000
vt 0.625000 0.750000
vt 0.125000 0.750000
vt 0.375000 1.000000
vt 0.375000 0.000000
vt 0.625000 1.000000
vt 0.625000 0.000000
vt 0.875000 0.750000
vt 0.375000 0.750000
vt 0.625000 0.750000
s 0
f 2/3/1 3/6/1 1/2/1
f 4/7/2 7/11/2 3/6/2
f 8/12/3 5/9/3 7/11/3
f 2/4/4 12/18/4 6/10/4
f 7/11/5 1/1/5 3/5/5
f 4/8/6 6/10/6 8/12/6
f 10/15/7 16/24/7 12/18/7
f 5/9/3 12/18/3 11/17/3
f 1/2/1 10/16/1 2/3/1
f 5/9/8 9/13/8 1/1/8
f 15/23/9 17/25/9 13/19/9
f 11/17/3 16/24/3 15/23/3
f 11/17/10 13/19/10 9/13/10
f 9/14/1 14/21/1 10/16/1
f 20/32/11 17/26/11 19/31/11
f 13/20/1 18/29/1 14/21/1
f 14/22/12 20/32/12 16/24/12
f 15/23/3 20/32/3 19/31/3
f 2/3/1 4/7/1 3/6/1
f 4/7/2 8/12/2 7/11/2
f 8/12/3 6/10/3 5/9/3
f 2/4/4 10/15/4 12/18/4
f 7/11/5 5/9/5 1/1/5
f 4/8/6 2/4/6 6/10/6
f 10/15/7 14/22/7 16/24/7
f 5/9/3 6/10/3 12/18/3
f 1/2/1 9/14/1 10/16/1
f 5/9/8 11/17/8 9/13/8
f 15/23/9 19/31/9 17/25/9
f 11/17/3 12/18/3 16/24/3
f 11/17/10 15/23/10 13/19/10
f 9/14/1 13/20/1 14/21/1
f 20/32/11 18/28/11 17/26/11
f 13/20/1 17/27/1 18/29/1
f 14/22/12 18/30/12 20/32/12
f 15/23/3 16/24/3 20/32/3
