# Blender 3.5.0
# www.blender.org
mtllib shahei.mtl
o shahei
v 8.696283 0.030139 33.961445
v 8.696283 10.968247 33.961445
v 8.696283 0.030139 34.813362
v 8.696283 10.968247 34.813362
v -8.696283 0.030139 34.046833
v -8.696283 10.968247 34.046833
v -8.696283 0.030139 34.898750
v -8.696283 10.968247 34.898750
v 0.000000 0.030139 30.655071
v 0.000000 10.968247 30.655071
v 0.000000 0.030139 29.803154
v 0.000000 10.968247 29.803154
vn 1.0000 -0.0000 -0.0000
vn 0.4386 -0.0000 0.8987
vn -1.0000 -0.0000 -0.0000
vn 0.4314 -0.0000 -0.9022
vn -0.0000 -1.0000 -0.0000
vn -0.0000 1.0000 -0.0000
vn -0.4386 -0.0000 -0.8987
vn -0.4314 -0.0000 0.9022
vt 0.375000 0.000000
vt 0.375000 1.000000
vt 0.125000 0.750000
vt 0.625000 0.000000
vt 0.625000 1.000000
vt 0.875000 0.750000
vt 0.125000 0.500000
vt 0.375000 0.250000
vt 0.875000 0.500000
vt 0.625000 0.250000
vt 0.375000 0.750000
vt 0.625000 0.750000
vt 0.375000 0.500000
vt 0.625000 0.500000
vt 0.250000 0.500000
vt 0.375000 0.375000
vt 0.750000 0.500000
vt 0.625000 0.375000
vt 0.250000 0.750000
vt 0.375000 0.875000
vt 0.750000 0.750000
vt 0.625000 0.875000
s 0
f 2/4/1 3/8/1 1/1/1
f 10/18/2 7/13/2 9/16/2
f 8/14/3 5/11/3 7/13/3
f 12/22/4 1/2/4 11/20/4
f 9/15/5 5/11/5 11/19/5
f 10/17/6 2/6/6 12/21/6
f 10/17/6 6/12/6 8/14/6
f 9/15/5 1/3/5 3/7/5
f 6/12/7 11/20/7 5/11/7
f 4/10/8 9/16/8 3/8/8
f 2/4/1 4/10/1 3/8/1
f 10/18/2 8/14/2 7/13/2
f 8/14/3 6/12/3 5/11/3
f 12/22/4 2/5/4 1/2/4
f 9/15/5 7/13/5 5/11/5
f 10/17/6 4/9/6 2/6/6
f 10/17/6 12/21/6 6/12/6
f 9/15/5 11/19/5 1/3/5
f 6/12/7 12/22/7 11/20/7
f 4/10/8 10/18/8 9/16/8
