# Blender 3.5.1
# www.blender.org
mtllib stageSrop.mtl
o stageSrop
v -38.540951 -4.405509 72.129982
v -38.540951 0.755249 72.129982
v -38.540951 -4.405509 76.779510
v -38.540951 0.755249 76.779510
v -54.844616 -4.405509 72.129982
v -54.844616 0.755249 72.129982
v -54.844616 -4.405509 76.779510
v -54.844616 0.755249 76.779510
v -38.540951 -4.405509 118.290199
v -38.540951 16.645729 118.290199
v -54.844616 -4.405509 118.290199
v -54.844616 16.645729 118.290199
v -38.540951 -4.405509 142.260330
v -38.540951 16.645729 142.260330
v -54.844616 -4.405509 142.260330
v -54.844616 16.645729 142.260330
vn 1.0000 -0.0000 -0.0000
vn -0.0000 -1.0000 -0.0000
vn -1.0000 -0.0000 -0.0000
vn -0.0000 -0.0000 -1.0000
vn -0.0000 1.0000 -0.0000
vn -0.0000 0.9339 -0.3575
vn -0.0000 -0.0000 1.0000
vt 0.375000 0.000000
vt 0.375000 1.000000
vt 0.125000 0.750000
vt 0.625000 0.000000
vt 0.625000 1.000000
vt 0.875000 0.750000
vt 0.375000 0.250000
vt 0.125000 0.500000
vt 0.875000 0.500000
vt 0.625000 0.250000
vt 0.375000 0.750000
vt 0.625000 0.750000
vt 0.375000 0.500000
vt 0.625000 0.500000
vt 0.375000 0.250000
vt 0.125000 0.500000
vt 0.875000 0.500000
vt 0.625000 0.250000
vt 0.375000 0.500000
vt 0.625000 0.500000
vt 0.375000 0.250000
vt 0.125000 0.500000
vt 0.875000 0.500000
vt 0.625000 0.250000
vt 0.375000 0.500000
vt 0.625000 0.500000
s 0
f 2/4/1 3/7/1 1/1/1
f 3/8/2 11/19/2 7/13/2
f 8/14/3 5/11/3 7/13/3
f 6/12/4 1/2/4 5/11/4
f 7/13/2 1/3/2 3/8/2
f 4/9/5 6/12/5 8/14/5
f 12/20/5 14/23/5 10/17/5
f 8/14/6 10/17/6 4/9/6
f 4/10/1 9/15/1 3/7/1
f 8/14/3 11/19/3 12/20/3
f 14/24/7 15/25/7 13/21/7
f 10/18/1 13/21/1 9/15/1
f 11/19/3 16/26/3 12/20/3
f 9/16/2 15/25/2 11/19/2
f 2/4/1 4/10/1 3/7/1
f 3/8/2 9/16/2 11/19/2
f 8/14/3 6/12/3 5/11/3
f 6/12/4 2/5/4 1/2/4
f 7/13/2 5/11/2 1/3/2
f 4/9/5 2/6/5 6/12/5
f 12/20/5 16/26/5 14/23/5
f 8/14/6 12/20/6 10/17/6
f 4/10/1 10/18/1 9/15/1
f 8/14/3 7/13/3 11/19/3
f 14/24/7 16/26/7 15/25/7
f 10/18/1 14/24/1 13/21/1
f 11/19/3 15/25/3 16/26/3
f 9/16/2 13/22/2 15/25/2
