# Blender 3.5.1
# www.blender.org
mtllib goalSrop.mtl
o goalSrop
v 1.766078 58.670574 493.946869
v 1.766078 60.670574 493.946869
v 1.766078 58.670574 495.946869
v 1.766078 60.670574 495.946869
v -1.766078 58.670574 493.946869
v -1.766078 60.670574 493.946869
v -1.766078 58.670574 495.946869
v -1.766078 60.670574 495.946869
v 1.766078 467.971375 989.799133
v 1.766078 469.971375 989.799133
v -1.766078 467.971375 989.799133
v -1.766078 469.971375 989.799133
vn 1.0000 -0.0000 -0.0000
vn -0.0000 0.7699 -0.6381
vn -1.0000 -0.0000 -0.0000
vn -0.0000 -0.0000 -1.0000
vn -0.0000 -1.0000 -0.0000
vn -0.0000 1.0000 -0.0000
vn -0.0000 -0.0000 1.0000
vn -0.0000 -0.7699 0.6381
vt 0.375000 0.000000
vt 0.375000 1.000000
vt 0.125000 0.750000
vt 0.625000 0.000000
vt 0.625000 1.000000
vt 0.875000 0.750000
vt 0.375000 0.250000
vt 0.125000 0.500000
vt 0.875000 0.500000
vt 0.625000 0.250000
vt 0.375000 0.750000
vt 0.625000 0.750000
vt 0.375000 0.500000
vt 0.625000 0.500000
vt 0.375000 0.250000
vt 0.125000 0.500000
vt 0.875000 0.500000
vt 0.625000 0.250000
vt 0.375000 0.500000
vt 0.625000 0.500000
s 0
f 2/4/1 3/7/1 1/1/1
f 8/14/2 10/17/2 4/9/2
f 8/14/3 5/11/3 7/13/3
f 6/12/4 1/2/4 5/11/4
f 7/13/5 1/3/5 3/8/5
f 4/9/6 6/12/6 8/14/6
f 10/18/7 11/19/7 9/15/7
f 4/10/1 9/15/1 3/7/1
f 8/14/3 11/19/3 12/20/3
f 3/8/8 11/19/8 7/13/8
f 2/4/1 4/10/1 3/7/1
f 8/14/2 12/20/2 10/17/2
f 8/14/3 6/12/3 5/11/3
f 6/12/4 2/5/4 1/2/4
f 7/13/5 5/11/5 1/3/5
f 4/9/6 2/6/6 6/12/6
f 10/18/7 12/20/7 11/19/7
f 4/10/1 10/18/1 9/15/1
f 8/14/3 7/13/3 11/19/3
f 3/8/8 9/16/8 11/19/8
