# Blender 3.1.2
# www.blender.org
mtllib wing.mtl
o 平面
v -0.007632 0.125593 1.549187
v 0.000000 1.446680 -2.900470
v 0.080994 1.446680 -0.675642
v -0.080994 1.446680 -0.675642
v -0.080994 1.368921 0.436773
v 0.080994 1.368921 0.436773
v -0.080994 1.274038 0.927345
v 0.080994 1.274038 0.927345
v -0.060616 0.880825 1.359148
v 0.055925 0.880825 1.359148
v 0.076142 1.073308 1.263138
v -0.074884 1.073308 1.263138
v -0.037546 0.503209 1.486740
v 0.026241 0.503209 1.486740
v 0.125593 0.007632 1.549187
v 1.446680 0.000000 -2.900470
v 1.446680 -0.080994 -0.675642
v 1.446680 0.080994 -0.675642
v 1.368921 0.080994 0.436773
v 1.368921 -0.080994 0.436773
v 1.274038 0.080994 0.927345
v 1.274038 -0.080994 0.927345
v 0.880825 0.060617 1.359148
v 0.880825 -0.055925 1.359148
v 1.073308 -0.076142 1.263138
v 1.073308 0.074884 1.263138
v 0.503209 0.037546 1.486740
v 0.503209 -0.026240 1.486740
v 0.007632 -0.125592 1.549187
v 0.000000 -1.446680 -2.900470
v -0.080994 -1.446680 -0.675642
v 0.080994 -1.446680 -0.675642
v 0.080994 -1.368921 0.436773
v -0.080994 -1.368921 0.436773
v 0.080994 -1.274037 0.927345
v -0.080994 -1.274037 0.927345
v 0.060617 -0.880825 1.359148
v -0.055925 -0.880825 1.359148
v -0.076142 -1.073307 1.263138
v 0.074884 -1.073307 1.263138
v 0.037546 -0.503209 1.486740
v -0.026240 -0.503209 1.486740
v -0.125593 -0.007632 1.549187
v -1.446680 0.000000 -2.900470
v -1.446680 0.080994 -0.675642
v -1.446680 -0.080994 -0.675642
v -1.368921 -0.080994 0.436773
v -1.368921 0.080994 0.436773
v -1.274038 -0.080994 0.927345
v -1.274038 0.080994 0.927345
v -0.880825 -0.060616 1.359148
v -0.880825 0.055925 1.359148
v -1.073308 0.076142 1.263138
v -1.073308 -0.074884 1.263138
v -0.503209 -0.037546 1.486740
v -0.503209 0.026241 1.486740
v 0.125357 -0.106694 1.549187
v 1.054110 -1.046240 -2.900470
v 0.996838 -1.103512 -0.675642
v 1.111382 -0.988968 -0.675642
v 1.056398 -0.933985 0.436773
v 0.941855 -1.048528 0.436773
v 0.989305 -0.866892 0.927345
v 0.874762 -0.981435 0.927345
v 0.696853 -0.603258 1.359148
v 0.614445 -0.685665 1.359148
v 0.736255 -0.836066 1.263138
v 0.843047 -0.729275 1.263138
v 0.413524 -0.352556 1.486740
v 0.368420 -0.397660 1.486740
v -0.114564 -0.117487 1.549187
v -1.054110 -1.046240 -2.900470
v -1.111382 -0.988968 -0.675642
v -0.996838 -1.103512 -0.675642
v -0.941855 -1.048528 0.436773
v -1.056398 -0.933985 0.436773
v -0.874762 -0.981435 0.927345
v -0.989305 -0.866892 0.927345
v -0.611128 -0.688982 1.359148
v -0.693535 -0.606575 1.359148
v -0.843936 -0.728385 1.263138
v -0.737145 -0.835177 1.263138
v -0.360426 -0.405654 1.486740
v -0.405530 -0.360550 1.486740
v -0.125357 0.106693 1.549187
v -1.054110 1.046239 -2.900470
v -0.996838 1.103511 -0.675642
v -1.111382 0.988967 -0.675642
v -1.056398 0.933984 0.436773
v -0.941855 1.048527 0.436773
v -0.989305 0.866891 0.927345
v -0.874762 0.981434 0.927345
v -0.696853 0.603257 1.359148
v -0.614445 0.685664 1.359148
v -0.736255 0.836066 1.263138
v -0.843047 0.729274 1.263138
v -0.413524 0.352556 1.486740
v -0.368420 0.397659 1.486740
v 0.114568 0.117486 1.549187
v 1.054114 1.046239 -2.900470
v 1.111386 0.988967 -0.675642
v 0.996843 1.103511 -0.675642
v 0.941859 1.048527 0.436773
v 1.056402 0.933984 0.436773
v 0.874766 0.981434 0.927345
v 0.989309 0.866891 0.927345
v 0.611132 0.688982 1.359148
v 0.693539 0.606574 1.359148
v 0.843941 0.728384 1.263138
v 0.737149 0.835176 1.263138
v 0.360431 0.405653 1.486740
v 0.405535 0.360550 1.486740
vn -0.0000 1.0000 -0.0000
vn -0.0000 0.9976 0.0697
vn -0.0000 0.9818 0.1899
vn -0.0000 0.8583 0.5131
vn -0.0000 0.3201 0.9474
vn -0.0000 0.4464 0.8949
vn -0.0000 0.1632 0.9866
vn 1.0000 -0.0000 -0.0000
vn 0.9976 -0.0000 0.0697
vn 0.9818 -0.0000 0.1899
vn 0.8583 -0.0000 0.5131
vn 0.3201 -0.0000 0.9474
vn 0.4464 -0.0000 0.8949
vn 0.1632 -0.0000 0.9866
vn -0.0000 -1.0000 -0.0000
vn -0.0000 -0.9976 0.0697
vn -0.0000 -0.9818 0.1899
vn -0.0000 -0.8583 0.5131
vn -0.0000 -0.3201 0.9474
vn -0.0000 -0.4464 0.8949
vn -0.0000 -0.1632 0.9866
vn -1.0000 -0.0000 -0.0000
vn -0.9976 -0.0000 0.0697
vn -0.9818 -0.0000 0.1899
vn -0.8583 -0.0000 0.5131
vn -0.3201 -0.0000 0.9474
vn -0.4464 -0.0000 0.8949
vn -0.1632 -0.0000 0.9866
vn 0.7071 -0.7071 -0.0000
vn 0.7054 -0.7054 0.0697
vn 0.6942 -0.6942 0.1899
vn 0.6069 -0.6069 0.5131
vn 0.2263 -0.2264 0.9474
vn 0.3156 -0.3156 0.8949
vn 0.1154 -0.1154 0.9866
vn -0.7071 -0.7071 -0.0000
vn -0.7054 -0.7054 0.0697
vn -0.6942 -0.6942 0.1899
vn -0.6069 -0.6069 0.5131
vn -0.2264 -0.2264 0.9474
vn -0.3156 -0.3156 0.8949
vn -0.1154 -0.1154 0.9866
vn -0.7071 0.7071 -0.0000
vn -0.7054 0.7054 0.0697
vn -0.6942 0.6942 0.1899
vn -0.6069 0.6069 0.5131
vn -0.2264 0.2264 0.9474
vn -0.3156 0.3156 0.8949
vn -0.1154 0.1154 0.9866
vn 0.7071 0.7071 -0.0000
vn 0.7054 0.7054 0.0697
vn 0.6942 0.6942 0.1899
vn 0.6069 0.6069 0.5131
vn 0.2264 0.2264 0.9474
vn 0.3156 0.3156 0.8949
vn 0.1154 0.1154 0.9866
vt 0.000000 0.359934
vt 0.105017 0.061261
vt 0.045388 0.000000
vt 0.045388 0.122523
vt 0.014481 0.122523
vt 0.014481 0.000000
vt 0.000000 0.122523
vt 0.070355 0.415662
vt 0.000000 0.000000
vt 0.070355 0.293152
vt 0.046267 0.400080
vt 0.046267 0.311942
vt 0.058058 0.296690
vt 0.058058 0.410909
vt 0.023133 0.382582
vt 0.023133 0.334341
vt 0.298774 0.000000
vt 0.163530 0.122523
vt 0.158568 0.183784
vt 0.304204 0.998244
vt 0.168492 0.183784
vt 0.294280 0.998244
vt 0.294280 0.939875
vt 0.304204 0.939875
vt 0.294280 0.868309
vt 0.304204 0.868309
vt 0.295529 0.571098
vt 0.302668 0.571098
vt 0.303907 0.716632
vt 0.294654 0.716632
vt 0.296942 0.285562
vt 0.300850 0.285562
vt 0.070355 0.360424
vt 0.105017 0.061261
vt 0.164647 0.122523
vt 0.164647 0.000000
vt 0.195553 0.000000
vt 0.195553 0.122523
vt 0.210034 0.000000
vt 0.140711 0.415662
vt 0.210034 0.122523
vt 0.140711 0.293152
vt 0.116622 0.400421
vt 0.116622 0.312282
vt 0.128414 0.296955
vt 0.128414 0.411174
vt 0.093489 0.383023
vt 0.093489 0.334783
vt 0.288851 0.000000
vt 0.153606 0.122523
vt 0.148644 0.183784
vt 0.294280 1.000000
vt 0.158568 0.183784
vt 0.284356 1.000000
vt 0.284356 0.940753
vt 0.294280 0.940753
vt 0.284356 0.868800
vt 0.294280 0.868800
vt 0.285605 0.571248
vt 0.292744 0.571248
vt 0.293983 0.716858
vt 0.284731 0.716858
vt 0.287018 0.285611
vt 0.290926 0.285611
vt 0.341856 0.654798
vt 0.074322 0.293152
vt 0.053832 0.223030
vt 0.000000 0.290932
vt 0.000910 0.239315
vt 0.054742 0.171413
vt 0.020490 0.190424
vt 0.345116 0.000000
vt 0.074322 0.122522
vt 0.331528 0.085843
vt 0.344404 0.221596
vt 0.334628 0.283355
vt 0.332448 0.190835
vt 0.345116 0.110802
vt 0.343418 0.436371
vt 0.338068 0.470173
vt 0.326437 0.000000
vt 0.284356 0.000000
vt 0.210034 0.002220
vt 0.263866 0.070122
vt 0.264776 0.121738
vt 0.210944 0.053837
vt 0.284356 0.170630
vt 0.317874 0.577540
vt 0.230524 0.102728
vt 0.331528 0.663372
vt 0.320400 0.377200
vt 0.330223 0.438951
vt 0.331528 0.552973
vt 0.318798 0.472949
vt 0.323129 0.186774
vt 0.328506 0.220572
vt 0.355510 0.655288
vt 0.284356 0.341259
vt 0.263866 0.271137
vt 0.210034 0.339039
vt 0.210944 0.287422
vt 0.264776 0.219521
vt 0.230524 0.238531
vt 0.358689 0.000000
vt 0.284356 0.170630
vt 0.345116 0.085845
vt 0.357991 0.221936
vt 0.348226 0.283696
vt 0.346035 0.191102
vt 0.358689 0.111066
vt 0.357036 0.436811
vt 0.351692 0.470614
vt 0.312698 0.000000
vt 0.148643 0.122522
vt 0.074322 0.124743
vt 0.128154 0.192644
vt 0.129064 0.244260
vt 0.075232 0.176359
vt 0.148643 0.293152
vt 0.304204 0.577052
vt 0.094811 0.225250
vt 0.317874 0.662882
vt 0.306719 0.377051
vt 0.316554 0.438801
vt 0.317874 0.552747
vt 0.305129 0.472726
vt 0.309421 0.186726
vt 0.314804 0.220523
s 0
usemtl マテリアル
f 3/3/1 2/2/1 4/4/1
f 6/6/2 3/3/2 4/4/2 5/5/2
f 8/9/3 6/6/3 5/5/3 7/7/3
f 11/13/4 8/10/4 7/8/4 12/14/4
f 14/16/5 10/12/5 9/11/5 13/15/5
f 10/12/6 11/13/6 12/14/6 9/11/6
f 1/1/7 14/16/7 13/15/7
f 17/19/8 16/18/8 18/21/8
f 20/24/9 17/20/9 18/22/9 19/23/9
f 22/26/10 20/24/10 19/23/10 21/25/10
f 25/29/11 22/26/11 21/25/11 26/30/11
f 28/32/12 24/28/12 23/27/12 27/31/12
f 24/28/13 25/29/13 26/30/13 23/27/13
f 15/17/14 28/32/14 27/31/14
f 31/35/15 30/34/15 32/36/15
f 34/38/16 31/35/16 32/36/16 33/37/16
f 36/41/17 34/38/17 33/37/17 35/39/17
f 39/45/18 36/42/18 35/40/18 40/46/18
f 42/48/19 38/44/19 37/43/19 41/47/19
f 38/44/20 39/45/20 40/46/20 37/43/20
f 29/33/21 42/48/21 41/47/21
f 45/51/22 44/50/22 46/53/22
f 48/56/23 45/52/23 46/54/23 47/55/23
f 50/58/24 48/56/24 47/55/24 49/57/24
f 53/61/25 50/58/25 49/57/25 54/62/25
f 56/64/26 52/60/26 51/59/26 55/63/26
f 52/60/27 53/61/27 54/62/27 51/59/27
f 43/49/28 56/64/28 55/63/28
f 59/67/29 58/66/29 60/68/29
f 62/70/30 59/67/30 60/68/30 61/69/30
f 64/73/31 62/70/31 61/69/31 63/71/31
f 67/77/32 64/74/32 63/72/32 68/78/32
f 70/80/33 66/76/33 65/75/33 69/79/33
f 66/76/34 67/77/34 68/78/34 65/75/34
f 57/65/35 70/80/35 69/79/35
f 73/83/36 72/82/36 74/84/36
f 76/86/37 73/83/37 74/84/37 75/85/37
f 78/89/38 76/86/38 75/85/38 77/87/38
f 81/93/39 78/90/39 77/88/39 82/94/39
f 84/96/40 80/92/40 79/91/40 83/95/40
f 80/92/41 81/93/41 82/94/41 79/91/41
f 71/81/42 84/96/42 83/95/42
f 87/99/43 86/98/43 88/100/43
f 90/102/44 87/99/44 88/100/44 89/101/44
f 92/105/45 90/102/45 89/101/45 91/103/45
f 95/109/46 92/106/46 91/104/46 96/110/46
f 98/112/47 94/108/47 93/107/47 97/111/47
f 94/108/48 95/109/48 96/110/48 93/107/48
f 85/97/49 98/112/49 97/111/49
f 101/115/50 100/114/50 102/116/50
f 104/118/51 101/115/51 102/116/51 103/117/51
f 106/121/52 104/118/52 103/117/52 105/119/52
f 109/125/53 106/122/53 105/120/53 110/126/53
f 112/128/54 108/124/54 107/123/54 111/127/54
f 108/124/55 109/125/55 110/126/55 107/123/55
f 99/113/56 112/128/56 111/127/56
